<svg xmlns="http://www.w3.org/2000/svg" xmlns:xlink="http://www.w3.org/1999/xlink" width="2864pt" height="2345pt" viewBox="0.00 0.00 2864.47 2345.00">
<g id="graph0" class="graph" transform="scale(1 1) rotate(0) translate(4 2341)">
<title>MIAProjectWorkflow</title>
<polygon fill="white" stroke="none" points="-4,4 -4,-2341 2860.47,-2341 2860.47,4 -4,4"/>
<g id="clust1" class="cluster">
<title>cluster_interface</title>
<polygon fill="#e3f2fd" stroke="black" points="1374.35,-8 1374.35,-733 2201.64,-733 2201.64,-8 1374.35,-8"/>
<text text-anchor="start" x="1658.41" y="-715.6" font-family="Arial" font-size="14.00">            </text>
<text text-anchor="start" x="1705.08" y="-715.6" font-family="Arial" font-weight="bold" font-size="16.00">Interacción con Usuario</text>
<text text-anchor="start" x="1886.46" y="-715.6" font-family="Arial" font-size="14.00">        </text>
</g>
<g id="clust2" class="cluster">
<title>cluster_api_rest</title>
<polygon fill="#ffecb3" stroke="black" points="1366.26,-1000 1366.26,-1618 1885.93,-1618 1885.93,-1000 1366.26,-1000"/>
<text text-anchor="start" x="1550.31" y="-1600.6" font-family="Arial" font-size="14.00">            </text>
<text text-anchor="start" x="1596.98" y="-1600.6" font-family="Arial" font-weight="bold" font-size="16.00">API REST</text>
<text text-anchor="start" x="1670.77" y="-1600.6" font-family="Arial" font-size="14.00">        </text>
</g>
<g id="clust3" class="cluster">
<title>cluster_backend</title>
<polygon fill="#e0f2f1" stroke="black" points="1669.71,-2176 1669.71,-2329 2533.07,-2329 2533.07,-2176 1669.71,-2176"/>
<text text-anchor="start" x="1950.02" y="-2311.6" font-family="Arial" font-size="14.00">            </text>
<text text-anchor="start" x="1996.69" y="-2311.6" font-family="Arial" font-weight="bold" font-size="16.00">Procesamiento de Comandos</text>
<text text-anchor="start" x="2221.64" y="-2311.6" font-family="Arial" font-size="14.00">        </text>
</g>
<g id="clust4" class="cluster">
<title>cluster_disk_manager</title>
<polygon fill="#e8f5e9" stroke="black" points="1984.87,-1420 1984.87,-1734 2549.83,-1734 2549.83,-1420 1984.87,-1420"/>
<text text-anchor="start" x="2162.65" y="-1716.6" font-family="Arial" font-size="14.00">            </text>
<text text-anchor="start" x="2209.33" y="-1716.6" font-family="Arial" font-weight="bold" font-size="16.00">Gestor de Discos</text>
<text text-anchor="start" x="2340.93" y="-1716.6" font-family="Arial" font-size="14.00">        </text>
</g>
<g id="clust5" class="cluster">
<title>cluster_filesystem</title>
<polygon fill="#fff8e1" stroke="black" points="1976.85,-1742 1976.85,-2093 2534.88,-2093 2534.88,-1742 1976.85,-1742"/>
<text text-anchor="start" x="2116.04" y="-2075.6" font-family="Arial" font-size="14.00">            </text>
<text text-anchor="start" x="2162.71" y="-2075.6" font-family="Arial" font-weight="bold" font-size="16.00">Sistema de Archivos EXT2</text>
<text text-anchor="start" x="2364.57" y="-2075.6" font-family="Arial" font-size="14.00">        </text>
</g>
<g id="clust6" class="cluster">
<title>cluster_reports</title>
<polygon fill="#f3e5f5" stroke="black" points="145.31,-874 145.31,-1045 1115,-1045 1115,-874 145.31,-874"/>
<text text-anchor="start" x="497.45" y="-1027.6" font-family="Arial" font-size="14.00">            </text>
<text text-anchor="start" x="544.12" y="-1027.6" font-family="Arial" font-weight="bold" font-size="16.00">Reportes y Visualización</text>
<text text-anchor="start" x="731.75" y="-1027.6" font-family="Arial" font-size="14.00">        </text>
</g>
<g id="clust7" class="cluster">
<title>cluster_storage</title>
<polygon fill="#ffebee" stroke="black" points="2626.64,-1650 2626.64,-1835 2848.47,-1835 2848.47,-1650 2626.64,-1650"/>
<text text-anchor="start" x="2634.64" y="-1817.6" font-family="Arial" font-size="14.00">            </text>
<text text-anchor="start" x="2681.32" y="-1817.6" font-family="Arial" font-weight="bold" font-size="16.00">Almacenamiento</text>
<text text-anchor="start" x="2809.36" y="-1817.6" font-family="Arial" font-size="14.00">        </text>
</g>
<g id="clust8" class="cluster">
<title>cluster_legend</title>
<polygon fill="#fafafa" stroke="black" points="130.52,-1160 130.52,-1590 377.39,-1590 377.39,-1160 130.52,-1160"/>
<text text-anchor="start" x="182.6" y="-1572.6" font-family="Arial" font-size="14.00">            </text>
<text text-anchor="start" x="229.28" y="-1572.6" font-family="Arial" font-weight="bold" font-size="16.00">Leyenda</text>
<text text-anchor="start" x="294.19" y="-1572.6" font-family="Arial" font-size="14.00">        </text>
</g>
<!-- title -->
<g id="node1" class="node">
<title>title</title>
<polygon fill="#e8f5e9" stroke="none" points="507.91,-853.2 0,-853.2 0,-798.8 507.91,-798.8 507.91,-853.2"/>
<text text-anchor="start" x="16.4" y="-821.6" font-family="Arial" font-weight="bold" font-size="18.00" fill="#004d40">Flujo de Trabajo - Sistema de Administración de Discos</text>
</g>
<!-- user -->
<g id="node2" class="node">
<title>user</title>
<polygon fill="#bbdefb" stroke="black" points="1533.87,-141.4 1394.35,-141.4 1394.35,-36.6 1533.87,-36.6 1533.87,-141.4"/>
<text text-anchor="start" x="1438.05" y="-113.4" font-family="Arial" font-weight="bold" font-size="14.00">Usuario</text>
<text text-anchor="start" x="1414.75" y="-93.4" font-family="Arial" font-size="12.00">Ingresa comandos</text>
<text text-anchor="start" x="1415.75" y="-75" font-family="Arial" font-size="12.00">Navega interfaces</text>
<text text-anchor="start" x="1410.75" y="-56.6" font-family="Arial" font-size="12.00">Visualiza resultados</text>
</g>
<!-- frontend -->
<g id="node3" class="node">
<title>frontend</title>
<polygon fill="#90caf9" stroke="black" points="1849.02,-132.2 1692.58,-132.2 1692.58,-45.8 1849.02,-45.8 1849.02,-132.2"/>
<text text-anchor="start" x="1708.98" y="-104.2" font-family="Arial" font-weight="bold" font-size="14.00">Frontend Moderno</text>
<text text-anchor="start" x="1721.11" y="-84.2" font-family="Arial" font-size="12.00">Interfaces visuales</text>
<text text-anchor="start" x="1719.44" y="-65.8" font-family="Arial" font-size="12.00">Interacción intuitiva</text>
</g>
<!-- user&#45;&gt;frontend -->
<g id="edge1" class="edge">
<title>user-&gt;frontend</title>
<path fill="none" stroke="black" d="M1534.25,-89C1577.64,-89 1634.02,-89 1680.74,-89"/>
<polygon fill="black" stroke="black" points="1680.57,-92.5 1690.57,-89 1680.57,-85.5 1680.57,-92.5"/>
<text text-anchor="start" x="1586.58" y="-92" font-family="Arial" font-size="10.00">Interactúa</text>
</g>
<!-- consoleUI -->
<g id="node4" class="node">
<title>consoleUI</title>
<polygon fill="#64b5f6" stroke="black" points="2160.33,-685.6 2007.6,-685.6 2007.6,-600.4 2160.33,-600.4 2160.33,-685.6"/>
<text text-anchor="start" x="2024" y="-658.5" font-family="Arial" font-weight="bold" font-size="13.00">Consola Interactiva</text>
<text text-anchor="start" x="2046.62" y="-638.8" font-family="Arial" font-size="12.00">Terminal retro</text>
<text text-anchor="start" x="2024.6" y="-620.4" font-family="Arial" font-size="12.00">Historial de comandos</text>
</g>
<!-- user&#45;&gt;consoleUI -->
<g id="edge46" class="edge">
<title>user-&gt;consoleUI</title>
<path fill="none" stroke="blue" stroke-dasharray="5,2" d="M1534.13,-115.08C1653.52,-160.19 1885.93,-248 1885.93,-248 1885.93,-248 1901.93,-465 1901.93,-465 1901.93,-465 1950.29,-475 1950.29,-475 1950.29,-475 1976.85,-572 1976.85,-572 1976.85,-572 1991.32,-581.68 2009.57,-593.89"/>
<polygon fill="blue" stroke="blue" points="2007.27,-596.57 2017.53,-599.22 2011.17,-590.75 2007.27,-596.57"/>
<text text-anchor="start" x="1730.78" y="-251" font-family="Arial" font-size="10.00">Confirma/Cancela</text>
</g>
<!-- frontend&#45;&gt;consoleUI -->
<g id="edge2" class="edge">
<title>frontend-&gt;consoleUI</title>
<path fill="none" stroke="black" d="M1828.87,-132.5C1857.4,-154.25 1885.93,-176 1885.93,-176 1885.93,-176 1901.93,-385 1901.93,-385 1901.93,-385 1950.29,-445 1950.29,-445 1950.29,-445 1976.85,-572 1976.85,-572 1976.85,-572 1991.32,-581.68 2009.57,-593.89"/>
<polygon fill="black" stroke="black" points="2007.27,-596.57 2017.53,-599.22 2011.17,-590.75 2007.27,-596.57"/>
<text text-anchor="start" x="1909.44" y="-448" font-family="Arial" font-size="10.00">Accede</text>
</g>
<!-- diskExplorer -->
<g id="node5" class="node">
<title>diskExplorer</title>
<polygon fill="#42a5f5" stroke="black" points="2167.19,-542.6 2000.74,-542.6 2000.74,-457.4 2167.19,-457.4 2167.19,-542.6"/>
<text text-anchor="start" x="2017.14" y="-515.5" font-family="Arial" font-weight="bold" font-size="13.00">Explorador de Discos</text>
<text text-anchor="start" x="2040.94" y="-495.8" font-family="Arial" font-size="12.00">Vista de tarjetas</text>
<text text-anchor="start" x="2030.27" y="-477.4" font-family="Arial" font-size="12.00">Estadísticas de uso</text>
</g>
<!-- frontend&#45;&gt;diskExplorer -->
<g id="edge3" class="edge">
<title>frontend-&gt;diskExplorer</title>
<path fill="none" stroke="black" d="M1828.87,-132.5C1857.4,-154.25 1885.93,-176 1885.93,-176 1885.93,-176 1901.93,-279 1901.93,-279 1901.93,-279 1950.29,-363 1950.29,-363 1950.29,-363 1976.85,-429 1976.85,-429 1976.85,-429 1991.32,-438.68 2009.57,-450.89"/>
<polygon fill="black" stroke="black" points="2007.27,-453.57 2017.53,-456.22 2011.17,-447.75 2007.27,-453.57"/>
<text text-anchor="start" x="1909.44" y="-366" font-family="Arial" font-size="10.00">Accede</text>
</g>
<!-- partitionExplorer -->
<g id="node6" class="node">
<title>partitionExplorer</title>
<polygon fill="#2196f3" stroke="black" points="2180.92,-399.6 1987.01,-399.6 1987.01,-314.4 2180.92,-314.4 2180.92,-399.6"/>
<text text-anchor="start" x="2003.41" y="-372.5" font-family="Arial" font-weight="bold" font-size="13.00">Explorador de Particiones</text>
<text text-anchor="start" x="2033.93" y="-352.8" font-family="Arial" font-size="12.00">Estado de montaje</text>
<text text-anchor="start" x="2035.61" y="-334.4" font-family="Arial" font-size="12.00">Información visual</text>
</g>
<!-- frontend&#45;&gt;partitionExplorer -->
<g id="edge4" class="edge">
<title>frontend-&gt;partitionExplorer</title>
<path fill="none" stroke="black" d="M1828.87,-132.5C1857.4,-154.25 1885.93,-176 1885.93,-176 1885.93,-176 1976.85,-286 1976.85,-286 1976.85,-286 1991.32,-295.68 2009.57,-307.89"/>
<polygon fill="black" stroke="black" points="2007.27,-310.57 2017.53,-313.22 2011.17,-304.75 2007.27,-310.57"/>
<text text-anchor="start" x="1909.44" y="-256.5" font-family="Arial" font-size="10.00">Accede</text>
</g>
<!-- fsExplorer -->
<g id="node7" class="node">
<title>fsExplorer</title>
<polygon fill="#1e88e5" stroke="black" points="2181.64,-256.6 1986.29,-256.6 1986.29,-171.4 2181.64,-171.4 2181.64,-256.6"/>
<text text-anchor="start" x="2002.69" y="-229.5" font-family="Arial" font-weight="bold" font-size="13.00">Explorador de S. Archivos</text>
<text text-anchor="start" x="2024.27" y="-209.8" font-family="Arial" font-size="12.00">Navegación jerárquica</text>
<text text-anchor="start" x="2014.6" y="-191.4" font-family="Arial" font-size="12.00">Visualización de permisos</text>
</g>
<!-- frontend&#45;&gt;fsExplorer -->
<g id="edge5" class="edge">
<title>frontend-&gt;fsExplorer</title>
<path fill="none" stroke="black" d="M1849.52,-120.22C1887.52,-135.49 1933.88,-154.11 1975.23,-170.72"/>
<polygon fill="black" stroke="black" points="1973.92,-173.97 1984.51,-174.45 1976.53,-167.47 1973.92,-173.97"/>
<text text-anchor="start" x="1909.44" y="-161.98" font-family="Arial" font-size="10.00">Accede</text>
</g>
<!-- fileViewer -->
<g id="node8" class="node">
<title>fileViewer</title>
<polygon fill="#1976d2" stroke="black" points="2159.74,-113.6 2008.19,-113.6 2008.19,-28.4 2159.74,-28.4 2159.74,-113.6"/>
<text text-anchor="start" x="2028.7" y="-86.5" font-family="Arial" font-weight="bold" font-size="13.00">Visor de Archivos</text>
<text text-anchor="start" x="2024.59" y="-66.8" font-family="Arial" font-size="12.00">Contenido formateado</text>
<text text-anchor="start" x="2026.93" y="-48.4" font-family="Arial" font-size="12.00">Resaltado de sintaxis</text>
</g>
<!-- frontend&#45;&gt;fileViewer -->
<g id="edge6" class="edge">
<title>frontend-&gt;fileViewer</title>
<path fill="none" stroke="black" d="M1849.52,-84.5C1894.16,-81.92 1950.32,-78.67 1996.37,-76.01"/>
<polygon fill="black" stroke="black" points="1996.55,-79.5 2006.34,-75.43 1996.15,-72.52 1996.55,-79.5"/>
<text text-anchor="start" x="1909.44" y="-84.08" font-family="Arial" font-size="10.00">Accede</text>
</g>
<!-- consoleUI&#45;&gt;user -->
<g id="edge45" class="edge">
<title>consoleUI-&gt;user</title>
<path fill="none" stroke="red" stroke-dasharray="5,2" d="M2018.79,-600.06C1996.44,-585.11 1976.85,-572 1976.85,-572 1976.85,-572 1901.93,-474 1901.93,-474 1901.93,-474 1885.93,-420 1885.93,-420 1885.93,-420 1669.71,-274 1669.71,-274 1669.71,-274 1577.96,-192 1577.96,-192 1577.96,-192 1555.9,-171.86 1531.28,-149.39"/>
<polygon fill="red" stroke="red" points="1533.72,-146.88 1523.98,-142.73 1529,-152.05 1533.72,-146.88"/>
<text text-anchor="start" x="1760.79" y="-435" font-family="Arial" font-size="10.00">Pide</text>
<text text-anchor="start" x="1742.46" y="-423" font-family="Arial" font-size="10.00">confirmación</text>
</g>
<!-- backend -->
<g id="node14" class="node">
<title>backend</title>
<polygon fill="#80deea" stroke="black" points="1851.89,-2282.2 1689.71,-2282.2 1689.71,-2195.8 1851.89,-2195.8 1851.89,-2282.2"/>
<text text-anchor="start" x="1730.73" y="-2254.2" font-family="Arial" font-weight="bold" font-size="14.00">Servidor Go</text>
<text text-anchor="start" x="1706.11" y="-2234.2" font-family="Arial" font-size="12.00">Recibe peticiones HTTP</text>
<text text-anchor="start" x="1708.76" y="-2215.8" font-family="Arial" font-size="12.00">Coordina componentes</text>
</g>
<!-- consoleUI&#45;&gt;backend -->
<g id="edge7" class="edge">
<title>consoleUI-&gt;backend</title>
<path fill="none" stroke="black" d="M2076.39,-685.99C2049.61,-860.94 1950.29,-1510 1950.29,-1510 1950.29,-1510 1901.93,-1559 1901.93,-1559 1901.93,-1559 1813.17,-2022.82 1782.26,-2184.33"/>
<polygon fill="black" stroke="black" points="1778.86,-2183.46 1780.42,-2193.94 1785.74,-2184.78 1778.86,-2183.46"/>
<text text-anchor="start" x="1911.94" y="-1574" font-family="Arial" font-size="10.00">Envía</text>
<text text-anchor="start" x="1903.04" y="-1562" font-family="Arial" font-size="10.00">comandos</text>
</g>
<!-- apiController -->
<g id="node9" class="node">
<title>apiController</title>
<polygon fill="#ffd54f" stroke="black" points="1541.96,-1113.2 1386.26,-1113.2 1386.26,-1026.8 1541.96,-1026.8 1541.96,-1113.2"/>
<text text-anchor="start" x="1402.66" y="-1085.2" font-family="Arial" font-weight="bold" font-size="14.00">Controladores API</text>
<text text-anchor="start" x="1413.42" y="-1065.2" font-family="Arial" font-size="12.00">Endpoints RESTful</text>
<text text-anchor="start" x="1414.76" y="-1046.8" font-family="Arial" font-size="12.00">Respuestas JSON</text>
</g>
<!-- diskExplorer&#45;&gt;apiController -->
<g id="edge8" class="edge">
<title>diskExplorer-&gt;apiController</title>
<path fill="none" stroke="black" d="M2018.79,-542.94C1996.44,-557.89 1976.85,-571 1976.85,-571 1976.85,-571 1950.29,-923 1950.29,-923 1950.29,-923 1669.71,-967 1669.71,-967 1669.71,-967 1608.03,-998.05 1552.4,-1026.06"/>
<polygon fill="black" stroke="black" points="1551.17,-1022.76 1543.81,-1030.38 1554.32,-1029.01 1551.17,-1022.76"/>
<text text-anchor="start" x="1754.68" y="-982" font-family="Arial" font-size="10.00">Solicita</text>
<text text-anchor="start" x="1758.57" y="-970" font-family="Arial" font-size="10.00">datos</text>
</g>
<!-- partitionExplorer&#45;&gt;apiController -->
<g id="edge9" class="edge">
<title>partitionExplorer-&gt;apiController</title>
<path fill="none" stroke="black" d="M2018.79,-399.94C1996.44,-414.89 1976.85,-428 1976.85,-428 1976.85,-428 1950.29,-684 1950.29,-684 1950.29,-684 1577.96,-842 1577.96,-842 1577.96,-842 1525.07,-948.85 1491.71,-1016.26"/>
<polygon fill="black" stroke="black" points="1488.71,-1014.44 1487.41,-1024.95 1494.98,-1017.54 1488.71,-1014.44"/>
<text text-anchor="start" x="1754.68" y="-816.04" font-family="Arial" font-size="10.00">Solicita</text>
<text text-anchor="start" x="1758.57" y="-804.04" font-family="Arial" font-size="10.00">datos</text>
</g>
<!-- fsExplorer&#45;&gt;apiController -->
<g id="edge10" class="edge">
<title>fsExplorer-&gt;apiController</title>
<path fill="none" stroke="black" d="M2018.79,-256.94C1996.44,-271.89 1976.85,-285 1976.85,-285 1976.85,-285 1950.29,-560 1950.29,-560 1950.29,-560 1669.71,-674 1669.71,-674 1669.71,-674 1577.96,-802 1577.96,-802 1577.96,-802 1520.73,-937.92 1487.78,-1016.17"/>
<polygon fill="black" stroke="black" points="1484.74,-1014.38 1484.08,-1024.95 1491.19,-1017.09 1484.74,-1014.38"/>
<text text-anchor="start" x="1754.68" y="-689" font-family="Arial" font-size="10.00">Solicita</text>
<text text-anchor="start" x="1758.57" y="-677" font-family="Arial" font-size="10.00">datos</text>
</g>
<!-- fileViewer&#45;&gt;apiController -->
<g id="edge11" class="edge">
<title>fileViewer-&gt;apiController</title>
<path fill="none" stroke="black" d="M2018.79,-113.94C1996.44,-128.89 1976.85,-142 1976.85,-142 1976.85,-142 1950.29,-471 1950.29,-471 1950.29,-471 1669.71,-548 1669.71,-548 1669.71,-548 1577.96,-703 1577.96,-703 1577.96,-703 1513.2,-913.62 1481.79,-1015.74"/>
<polygon fill="black" stroke="black" points="1478.54,-1014.43 1478.94,-1025.01 1485.23,-1016.48 1478.54,-1014.43"/>
<text text-anchor="start" x="1754.68" y="-563" font-family="Arial" font-size="10.00">Solicita</text>
<text text-anchor="start" x="1749.12" y="-551" font-family="Arial" font-size="10.00">contenido</text>
</g>
<!-- diskEndpoints -->
<g id="node10" class="node">
<title>diskEndpoints</title>
<polygon fill="#ffca28" stroke="black" points="1851.49,-1266.6 1690.11,-1266.6 1690.11,-1181.4 1851.49,-1181.4 1851.49,-1266.6"/>
<text text-anchor="start" x="1706.51" y="-1239.5" font-family="Arial" font-weight="bold" font-size="13.00">Endpoints de Discos</text>
<text text-anchor="start" x="1731.79" y="-1219.8" font-family="Arial" font-size="12.00">GET /api/disks</text>
<text text-anchor="start" x="1711.44" y="-1201.4" font-family="Arial" font-size="12.00">GET /api/disk/analysis</text>
</g>
<!-- apiController&#45;&gt;diskEndpoints -->
<g id="edge12" class="edge">
<title>apiController-&gt;diskEndpoints</title>
<path fill="none" stroke="black" d="M1542.39,-1109.06C1584.18,-1130.18 1636.02,-1156.38 1679.64,-1178.43"/>
<polygon fill="black" stroke="black" points="1677.82,-1181.43 1688.33,-1182.82 1680.98,-1175.19 1677.82,-1181.43"/>
<text text-anchor="start" x="1595.75" y="-1171.22" font-family="Arial" font-size="10.00">Rutas</text>
<text text-anchor="start" x="1590.19" y="-1159.22" font-family="Arial" font-size="10.00">de disco</text>
</g>
<!-- partitionEndpoints -->
<g id="node11" class="node">
<title>partitionEndpoints</title>
<polygon fill="#ffc107" stroke="black" points="1865.21,-1409.6 1676.39,-1409.6 1676.39,-1324.4 1865.21,-1324.4 1865.21,-1409.6"/>
<text text-anchor="start" x="1692.79" y="-1382.5" font-family="Arial" font-weight="bold" font-size="13.00">Endpoints de Particiones</text>
<text text-anchor="start" x="1721.11" y="-1362.8" font-family="Arial" font-size="12.00">GET /api/partitions</text>
<text text-anchor="start" x="1724.11" y="-1344.4" font-family="Arial" font-size="12.00">GET /api/partition</text>
</g>
<!-- apiController&#45;&gt;partitionEndpoints -->
<g id="edge13" class="edge">
<title>apiController-&gt;partitionEndpoints</title>
<path fill="none" stroke="black" d="M1504.56,-1113.58C1564.01,-1179.25 1669.71,-1296 1669.71,-1296 1669.71,-1296 1683.11,-1305.51 1700.1,-1317.56"/>
<polygon fill="black" stroke="black" points="1697.85,-1320.25 1708.03,-1323.19 1701.9,-1314.54 1697.85,-1320.25"/>
<text text-anchor="start" x="1588.8" y="-1273.11" font-family="Arial" font-size="10.00">Rutas de</text>
<text text-anchor="start" x="1589.92" y="-1261.11" font-family="Arial" font-size="10.00">partición</text>
</g>
<!-- fsEndpoints -->
<g id="node12" class="node">
<title>fsEndpoints</title>
<polygon fill="#ffb300" stroke="black" points="1865.93,-1123.8 1675.67,-1123.8 1675.67,-1020.2 1865.93,-1020.2 1865.93,-1123.8"/>
<text text-anchor="start" x="1692.07" y="-1096.7" font-family="Arial" font-weight="bold" font-size="13.00">Endpoints de S. Archivos</text>
<text text-anchor="start" x="1718.79" y="-1077" font-family="Arial" font-size="12.00">GET /api/filesystem</text>
<text text-anchor="start" x="1722.45" y="-1058.6" font-family="Arial" font-size="12.00">GET /api/directory</text>
<text text-anchor="start" x="1737.79" y="-1040.2" font-family="Arial" font-size="12.00">GET /api/file</text>
</g>
<!-- apiController&#45;&gt;fsEndpoints -->
<g id="edge14" class="edge">
<title>apiController-&gt;fsEndpoints</title>
<path fill="none" stroke="black" d="M1542.39,-1070.51C1579.22,-1070.75 1623.84,-1071.04 1663.78,-1071.3"/>
<polygon fill="black" stroke="black" points="1663.64,-1074.8 1673.66,-1071.37 1663.69,-1067.8 1663.64,-1074.8"/>
<text text-anchor="start" x="1588.8" y="-1086.12" font-family="Arial" font-size="10.00">Rutas de</text>
<text text-anchor="start" x="1591.59" y="-1074.12" font-family="Arial" font-size="10.00">sistema</text>
</g>
<!-- sessionEndpoints -->
<g id="node13" class="node">
<title>sessionEndpoints</title>
<polygon fill="#ffa000" stroke="black" points="1851.12,-1570.8 1690.48,-1570.8 1690.48,-1467.2 1851.12,-1467.2 1851.12,-1570.8"/>
<text text-anchor="start" x="1706.88" y="-1543.7" font-family="Arial" font-weight="bold" font-size="13.00">Endpoints de Sesión</text>
<text text-anchor="start" x="1728.78" y="-1524" font-family="Arial" font-size="12.00">POST /api/login</text>
<text text-anchor="start" x="1725.11" y="-1505.6" font-family="Arial" font-size="12.00">GET /api/session</text>
<text text-anchor="start" x="1725.11" y="-1487.2" font-family="Arial" font-size="12.00">POST /api/logout</text>
</g>
<!-- apiController&#45;&gt;sessionEndpoints -->
<g id="edge15" class="edge">
<title>apiController-&gt;sessionEndpoints</title>
<path fill="none" stroke="black" d="M1486.87,-1113.58C1519.66,-1179.25 1577.96,-1296 1577.96,-1296 1577.96,-1296 1669.71,-1439 1669.71,-1439 1669.71,-1439 1680.91,-1447.95 1695.82,-1459.87"/>
<polygon fill="black" stroke="black" points="1693.25,-1462.3 1703.25,-1465.81 1697.62,-1456.83 1693.25,-1462.3"/>
<text text-anchor="start" x="1588.8" y="-1403.66" font-family="Arial" font-size="10.00">Rutas de</text>
<text text-anchor="start" x="1594.36" y="-1391.66" font-family="Arial" font-size="10.00">sesión</text>
</g>
<!-- diskEndpoints&#45;&gt;diskExplorer -->
<g id="edge35" class="edge">
<title>diskEndpoints-&gt;diskExplorer</title>
<path fill="none" stroke="#ff5722" d="M1851.91,-1196.17C1899.36,-1179.69 1950.29,-1162 1950.29,-1162 1950.29,-1162 1976.85,-571 1976.85,-571 1976.85,-571 1991.32,-561.32 2009.57,-549.11"/>
<polygon fill="#ff5722" stroke="#ff5722" points="2011.17,-552.25 2017.53,-543.78 2007.27,-546.43 2011.17,-552.25"/>
<text text-anchor="start" x="1905.27" y="-1193.63" font-family="Arial" font-size="10.00">Devuelve</text>
<text text-anchor="start" x="1912.78" y="-1181.63" font-family="Arial" font-size="10.00">JSON</text>
</g>
<!-- diskManager -->
<g id="node17" class="node">
<title>diskManager</title>
<polygon fill="#81c784" stroke="black" points="2163.06,-1686.6 2004.87,-1686.6 2004.87,-1601.4 2163.06,-1601.4 2163.06,-1686.6"/>
<text text-anchor="start" x="2044.97" y="-1659.5" font-family="Arial" font-weight="bold" font-size="13.00">Coordinador</text>
<text text-anchor="start" x="2021.27" y="-1639.8" font-family="Arial" font-size="12.00">Administra operaciones</text>
<text text-anchor="start" x="2027.27" y="-1621.4" font-family="Arial" font-size="12.00">Dirige flujo de trabajo</text>
</g>
<!-- diskEndpoints&#45;&gt;diskManager -->
<g id="edge16" class="edge">
<title>diskEndpoints-&gt;diskManager</title>
<path fill="none" stroke="black" d="M1840.82,-1266.94C1864.86,-1281.89 1885.93,-1295 1885.93,-1295 1885.93,-1295 1901.93,-1423 1901.93,-1423 1901.93,-1423 1950.29,-1476 1950.29,-1476 1950.29,-1476 2003.06,-1542.82 2042.04,-1592.18"/>
<polygon fill="black" stroke="black" points="2039.26,-1594.31 2048.2,-1599.98 2044.75,-1589.97 2039.26,-1594.31"/>
<text text-anchor="start" x="1909.99" y="-1491" font-family="Arial" font-size="10.00">Solicita</text>
<text text-anchor="start" x="1904.15" y="-1479" font-family="Arial" font-size="10.00">operación</text>
</g>
<!-- partitionEndpoints&#45;&gt;partitionExplorer -->
<g id="edge36" class="edge">
<title>partitionEndpoints-&gt;partitionExplorer</title>
<path fill="none" stroke="#ff5722" d="M1840.82,-1324.06C1864.86,-1309.11 1885.93,-1296 1885.93,-1296 1885.93,-1296 1950.29,-1217 1950.29,-1217 1950.29,-1217 1976.85,-428 1976.85,-428 1976.85,-428 1991.32,-418.32 2009.57,-406.11"/>
<polygon fill="#ff5722" stroke="#ff5722" points="2011.17,-409.25 2017.53,-400.78 2007.27,-403.43 2011.17,-409.25"/>
<text text-anchor="start" x="1905.27" y="-1289.81" font-family="Arial" font-size="10.00">Devuelve</text>
<text text-anchor="start" x="1912.78" y="-1277.81" font-family="Arial" font-size="10.00">JSON</text>
</g>
<!-- partitionEndpoints&#45;&gt;diskManager -->
<g id="edge17" class="edge">
<title>partitionEndpoints-&gt;diskManager</title>
<path fill="none" stroke="black" d="M1840.82,-1409.94C1864.86,-1424.89 1885.93,-1438 1885.93,-1438 1885.93,-1438 1901.93,-1597 1901.93,-1597 1901.93,-1597 1948.01,-1608.96 1993.66,-1620.82"/>
<polygon fill="black" stroke="black" points="1992.59,-1624.15 2003.15,-1623.28 1994.35,-1617.38 1992.59,-1624.15"/>
<text text-anchor="start" x="1909.99" y="-1623.36" font-family="Arial" font-size="10.00">Solicita</text>
<text text-anchor="start" x="1904.15" y="-1611.36" font-family="Arial" font-size="10.00">operación</text>
</g>
<!-- fsEndpoints&#45;&gt;fsExplorer -->
<g id="edge37" class="edge">
<title>fsEndpoints-&gt;fsExplorer</title>
<path fill="none" stroke="#ff5722" d="M1840.3,-1019.81C1890.64,-981.46 1950.29,-936 1950.29,-936 1950.29,-936 1976.85,-285 1976.85,-285 1976.85,-285 1991.32,-275.32 2009.57,-263.11"/>
<polygon fill="#ff5722" stroke="#ff5722" points="2011.17,-266.25 2017.53,-257.78 2007.27,-260.43 2011.17,-266.25"/>
<text text-anchor="start" x="1905.27" y="-987.47" font-family="Arial" font-size="10.00">Devuelve</text>
<text text-anchor="start" x="1912.78" y="-975.47" font-family="Arial" font-size="10.00">JSON</text>
</g>
<!-- fsEndpoints&#45;&gt;fileViewer -->
<g id="edge38" class="edge">
<title>fsEndpoints-&gt;fileViewer</title>
<path fill="none" stroke="#ff5722" d="M1833.88,-1019.79C1860.65,-997.27 1885.93,-976 1885.93,-976 1885.93,-976 1901.93,-898 1901.93,-898 1901.93,-898 1950.29,-836 1950.29,-836 1950.29,-836 1976.85,-142 1976.85,-142 1976.85,-142 1991.32,-132.32 2009.57,-120.11"/>
<polygon fill="#ff5722" stroke="#ff5722" points="2011.17,-123.25 2017.53,-114.78 2007.27,-117.43 2011.17,-123.25"/>
<text text-anchor="start" x="1905.27" y="-913" font-family="Arial" font-size="10.00">Devuelve</text>
<text text-anchor="start" x="1912.78" y="-901" font-family="Arial" font-size="10.00">JSON</text>
</g>
<!-- filesystem -->
<g id="node20" class="node">
<title>filesystem</title>
<polygon fill="#ffd54f" stroke="black" points="2171.08,-1979.6 1996.85,-1979.6 1996.85,-1894.4 2171.08,-1894.4 2171.08,-1979.6"/>
<text text-anchor="start" x="2028.71" y="-1952.5" font-family="Arial" font-weight="bold" font-size="13.00">Controlador EXT2</text>
<text text-anchor="start" x="2013.25" y="-1932.8" font-family="Arial" font-size="12.00">Gestiona inodos y bloques</text>
<text text-anchor="start" x="2038.28" y="-1914.4" font-family="Arial" font-size="12.00">Maneja permisos</text>
</g>
<!-- fsEndpoints&#45;&gt;filesystem -->
<g id="edge18" class="edge">
<title>fsEndpoints-&gt;filesystem</title>
<path fill="none" stroke="black" d="M1866.27,-1099.52C1909.09,-1112 1950.29,-1124 1950.29,-1124 1950.29,-1124 1976.85,-1850 1976.85,-1850 1976.85,-1850 1998.22,-1867.52 2021.79,-1886.84"/>
<polygon fill="black" stroke="black" points="2019.41,-1889.42 2029.36,-1893.05 2023.84,-1884 2019.41,-1889.42"/>
<text text-anchor="start" x="1909.99" y="-1139" font-family="Arial" font-size="10.00">Solicita</text>
<text text-anchor="start" x="1904.15" y="-1127" font-family="Arial" font-size="10.00">operación</text>
</g>
<!-- sessionEndpoints&#45;&gt;frontend -->
<g id="edge39" class="edge">
<title>sessionEndpoints-&gt;frontend</title>
<path fill="none" stroke="#ff5722" d="M1704.78,-1466.76C1685.6,-1451.58 1669.71,-1439 1669.71,-1439 1669.71,-1439 1602.62,-880 1602.62,-880 1602.62,-880 1602.62,-856 1602.62,-856 1602.62,-856 1669.71,-176 1669.71,-176 1669.71,-176 1689.58,-158.9 1711.7,-139.86"/>
<polygon fill="#ff5722" stroke="#ff5722" points="1713.81,-142.66 1719.11,-133.49 1709.24,-137.36 1713.81,-142.66"/>
<text text-anchor="start" x="1587.97" y="-871" font-family="Arial" font-size="10.00">Devuelve</text>
<text text-anchor="start" x="1577.96" y="-859" font-family="Arial" font-size="10.00">estado sesión</text>
</g>
<!-- usersOps -->
<g id="node22" class="node">
<title>usersOps</title>
<polygon fill="#ffc107" stroke="black" points="2503.84,-1865.8 2336.33,-1865.8 2336.33,-1762.2 2503.84,-1762.2 2503.84,-1865.8"/>
<text text-anchor="start" x="2357.23" y="-1838.7" font-family="Arial" font-weight="bold" font-size="13.00">Gestión de Usuarios</text>
<text text-anchor="start" x="2378.72" y="-1819" font-family="Arial" font-size="12.00">• Login/Logout</text>
<text text-anchor="start" x="2352.73" y="-1800.6" font-family="Arial" font-size="12.00">• Crear/Eliminar Usuario</text>
<text text-anchor="start" x="2356.73" y="-1782.2" font-family="Arial" font-size="12.00">• Crear/Eliminar Grupo</text>
</g>
<!-- sessionEndpoints&#45;&gt;usersOps -->
<g id="edge19" class="edge">
<title>sessionEndpoints-&gt;usersOps</title>
<path fill="none" stroke="black" d="M1797.98,-1571.1C1835.98,-1646.73 1901.93,-1778 1901.93,-1778 1901.93,-1778 2175.38,-1797.03 2324.59,-1807.42"/>
<polygon fill="black" stroke="black" points="2324.27,-1810.91 2334.49,-1808.11 2324.75,-1803.92 2324.27,-1810.91"/>
<text text-anchor="start" x="2063.95" y="-1813.39" font-family="Arial" font-size="10.00">Gestiona</text>
<text text-anchor="start" x="2069.51" y="-1801.39" font-family="Arial" font-size="10.00">sesión</text>
</g>
<!-- backend&#45;&gt;consoleUI -->
<g id="edge43" class="edge">
<title>backend-&gt;consoleUI</title>
<path fill="none" stroke="black" d="M1780.01,-2195.35C1806.18,-2056.17 1885.93,-1632 1885.93,-1632 1885.93,-1632 1901.93,-1385 1901.93,-1385 1901.93,-1385 1950.29,-1313 1950.29,-1313 1950.29,-1313 2040.79,-856.01 2072.3,-696.86"/>
<polygon fill="black" stroke="black" points="2075.66,-697.9 2074.17,-687.42 2068.79,-696.55 2075.66,-697.9"/>
<text text-anchor="start" x="1908.05" y="-1400" font-family="Arial" font-size="10.00">Muestra</text>
<text text-anchor="start" x="1905.54" y="-1388" font-family="Arial" font-size="10.00">resultado</text>
</g>
<!-- analyzer -->
<g id="node15" class="node">
<title>analyzer</title>
<polygon fill="#4dd0e1" stroke="black" points="2178.37,-2281.6 1989.56,-2281.6 1989.56,-2196.4 2178.37,-2196.4 2178.37,-2281.6"/>
<text text-anchor="start" x="2005.96" y="-2254.5" font-family="Arial" font-weight="bold" font-size="13.00">Analizador de Comandos</text>
<text text-anchor="start" x="2013.92" y="-2234.8" font-family="Arial" font-size="12.00">Identifica tipo de comando</text>
<text text-anchor="start" x="2034.61" y="-2216.4" font-family="Arial" font-size="12.00">Extrae parámetros</text>
</g>
<!-- backend&#45;&gt;analyzer -->
<g id="edge20" class="edge">
<title>backend-&gt;analyzer</title>
<path fill="none" stroke="black" d="M1852.34,-2239C1890.61,-2239 1936.84,-2239 1977.83,-2239"/>
<polygon fill="black" stroke="black" points="1977.73,-2242.5 1987.73,-2239 1977.73,-2235.5 1977.73,-2242.5"/>
<text text-anchor="start" x="1907.77" y="-2254" font-family="Arial" font-size="10.00">Procesa</text>
<text text-anchor="start" x="1905.54" y="-2242" font-family="Arial" font-size="10.00">comando</text>
</g>
<!-- validator -->
<g id="node16" class="node">
<title>validator</title>
<polygon fill="#26c6da" stroke="black" points="2513.07,-2281.6 2327.1,-2281.6 2327.1,-2196.4 2513.07,-2196.4 2513.07,-2281.6"/>
<text text-anchor="start" x="2343.5" y="-2254.5" font-family="Arial" font-weight="bold" font-size="13.00">Validador de Parámetros</text>
<text text-anchor="start" x="2378.4" y="-2234.8" font-family="Arial" font-size="12.00">Verifica sintaxis</text>
<text text-anchor="start" x="2362.72" y="-2216.4" font-family="Arial" font-size="12.00">Valida valores y rutas</text>
</g>
<!-- analyzer&#45;&gt;validator -->
<g id="edge21" class="edge">
<title>analyzer-&gt;validator</title>
<path fill="none" stroke="black" d="M2178.48,-2239C2221.1,-2239 2271.71,-2239 2315.48,-2239"/>
<polygon fill="black" stroke="black" points="2315.23,-2242.5 2325.23,-2239 2315.23,-2235.5 2315.23,-2242.5"/>
<text text-anchor="start" x="2231.54" y="-2254" font-family="Arial" font-size="10.00">Extrae</text>
<text text-anchor="start" x="2220.7" y="-2242" font-family="Arial" font-size="10.00">parámetros</text>
</g>
<!-- validator&#45;&gt;consoleUI -->
<g id="edge44" class="edge">
<title>validator-&gt;consoleUI</title>
<path fill="none" stroke="red" stroke-dasharray="5,2" d="M2353.4,-2195.96C2294.62,-2157.44 2217.64,-2107 2217.64,-2107 2217.64,-2107 2201.64,-1406 2201.64,-1406 2201.64,-1406 2119.87,-871.28 2093.24,-697.11"/>
<polygon fill="red" stroke="red" points="2096.73,-696.78 2091.76,-687.43 2089.81,-697.84 2096.73,-696.78"/>
<text text-anchor="start" x="2229.87" y="-2157.4" font-family="Arial" font-size="10.00">Solicita</text>
<text text-anchor="start" x="2217.64" y="-2145.4" font-family="Arial" font-size="10.00">confirmación</text>
</g>
<!-- validator&#45;&gt;diskManager -->
<g id="edge22" class="edge">
<title>validator-&gt;diskManager</title>
<path fill="none" stroke="black" d="M2383.78,-2196.14C2352.02,-2157.6 2310.34,-2107 2310.34,-2107 2310.34,-2107 2274.34,-1704 2274.34,-1704 2274.34,-1704 2223.23,-1687.81 2174.11,-1672.25"/>
<polygon fill="black" stroke="black" points="2175.39,-1668.98 2164.8,-1669.29 2173.27,-1675.65 2175.39,-1668.98"/>
<text text-anchor="start" x="2220.15" y="-1719" font-family="Arial" font-size="10.00">Parámetros</text>
<text text-anchor="start" x="2224.86" y="-1707" font-family="Arial" font-size="10.00">validados</text>
</g>
<!-- diskManager&#45;&gt;backend -->
<g id="edge42" class="edge">
<title>diskManager-&gt;backend</title>
<path fill="none" stroke="#388e3c" d="M2076.2,-1601.09C2049.17,-1429.5 1950.29,-802 1950.29,-802 1950.29,-802 1901.93,-802 1901.93,-802 1901.93,-802 1885.93,-1632 1885.93,-1632 1885.93,-1632 1810.18,-2034.9 1782.1,-2184.2"/>
<polygon fill="#388e3c" stroke="#388e3c" points="1778.7,-2183.38 1780.29,-2193.86 1785.58,-2184.68 1778.7,-2183.38"/>
<text text-anchor="start" x="1905.27" y="-817" font-family="Arial" font-size="10.00">Devuelve</text>
<text text-anchor="start" x="1905.54" y="-805" font-family="Arial" font-size="10.00">resultado</text>
</g>
<!-- diskOps -->
<g id="node18" class="node">
<title>diskOps</title>
<polygon fill="#66bb6a" stroke="black" points="2510.49,-1686.6 2329.68,-1686.6 2329.68,-1601.4 2510.49,-1601.4 2510.49,-1686.6"/>
<text text-anchor="start" x="2351.81" y="-1659.5" font-family="Arial" font-weight="bold" font-size="13.00">Operaciones de Disco</text>
<text text-anchor="start" x="2353.08" y="-1639.8" font-family="Arial" font-size="12.00">• Crear Disco (MKDISK)</text>
<text text-anchor="start" x="2346.08" y="-1621.4" font-family="Arial" font-size="12.00">• Eliminar Disco (RMDISK)</text>
</g>
<!-- diskManager&#45;&gt;diskOps -->
<g id="edge23" class="edge">
<title>diskManager-&gt;diskOps</title>
<path fill="none" stroke="black" d="M2163.29,-1619.2C2192.02,-1610.11 2217.64,-1602 2217.64,-1602 2217.64,-1602 2274.34,-1602 2274.34,-1602 2274.34,-1602 2293.88,-1607.67 2318.6,-1614.84"/>
<polygon fill="black" stroke="black" points="2317.44,-1618.15 2328.02,-1617.58 2319.39,-1611.43 2317.44,-1618.15"/>
<text text-anchor="start" x="2221.81" y="-1617" font-family="Arial" font-size="10.00">Comandos</text>
<text text-anchor="start" x="2227.36" y="-1605" font-family="Arial" font-size="10.00">de disco</text>
</g>
<!-- partitionOps -->
<g id="node19" class="node">
<title>partitionOps</title>
<polygon fill="#4caf50" stroke="black" points="2529.83,-1543.8 2310.34,-1543.8 2310.34,-1440.2 2529.83,-1440.2 2529.83,-1543.8"/>
<text text-anchor="start" x="2342.06" y="-1516.7" font-family="Arial" font-weight="bold" font-size="13.00">Operaciones de Partición</text>
<text text-anchor="start" x="2326.74" y="-1497" font-family="Arial" font-size="12.00">• Crear/Eliminar Partición (FDISK)</text>
<text text-anchor="start" x="2342.08" y="-1478.6" font-family="Arial" font-size="12.00">• Montar Partición (MOUNT)</text>
<text text-anchor="start" x="2334.73" y="-1460.2" font-family="Arial" font-size="12.00">• Listar Montadas (MOUNTED)</text>
</g>
<!-- diskManager&#45;&gt;partitionOps -->
<g id="edge24" class="edge">
<title>diskManager-&gt;partitionOps</title>
<path fill="none" stroke="black" d="M2156.35,-1600.96C2187.75,-1582.02 2217.64,-1564 2217.64,-1564 2217.64,-1564 2256.05,-1550.27 2299.32,-1534.8"/>
<polygon fill="black" stroke="black" points="2300.44,-1538.12 2308.68,-1531.46 2298.09,-1531.53 2300.44,-1538.12"/>
<text text-anchor="start" x="2221.81" y="-1579" font-family="Arial" font-size="10.00">Comandos</text>
<text text-anchor="start" x="2220.14" y="-1567" font-family="Arial" font-size="10.00">de partición</text>
</g>
<!-- diskManager&#45;&gt;filesystem -->
<g id="edge25" class="edge">
<title>diskManager-&gt;filesystem</title>
<path fill="none" stroke="black" d="M2021.72,-1687.08C1977.7,-1717.55 1926.48,-1753 1926.48,-1753 1926.48,-1753 1926.48,-1777 1926.48,-1777 1926.48,-1777 1976.85,-1850 1976.85,-1850 1976.85,-1850 1998.43,-1867.52 2022.21,-1886.84"/>
<polygon fill="black" stroke="black" points="2019.89,-1889.47 2029.86,-1893.06 2024.3,-1884.03 2019.89,-1889.47"/>
<text text-anchor="start" x="1901.93" y="-1768" font-family="Arial" font-size="10.00">Comandos</text>
<text text-anchor="start" x="1901.94" y="-1756" font-family="Arial" font-size="10.00">de sistema</text>
</g>
<!-- reports -->
<g id="node23" class="node">
<title>reports</title>
<polygon fill="#ce93d8" stroke="black" points="342.6,-996.6 165.31,-996.6 165.31,-911.4 342.6,-911.4 342.6,-996.6"/>
<text text-anchor="start" x="181.71" y="-969.5" font-family="Arial" font-weight="bold" font-size="13.00">Generador de Reportes</text>
<text text-anchor="start" x="198.93" y="-949.8" font-family="Arial" font-size="12.00">Crea visualizaciones</text>
<text text-anchor="start" x="205.6" y="-931.4" font-family="Arial" font-size="12.00">Exporta imágenes</text>
</g>
<!-- diskManager&#45;&gt;reports -->
<g id="edge28" class="edge">
<title>diskManager-&gt;reports</title>
<path fill="none" stroke="black" d="M2004.44,-1662.67C1912.26,-1684.6 1771.8,-1718 1771.8,-1718 701.69,-1718 701.69,-1718 701.69,-1718 701.69,-1718 507.91,-1146 507.91,-1146 507.91,-1146 395.62,-1060.77 320.67,-1003.88"/>
<polygon fill="black" stroke="black" points="323.01,-1001.26 312.93,-998 318.78,-1006.84 323.01,-1001.26"/>
<text text-anchor="start" x="1205" y="-1733" font-family="Arial" font-size="10.00">Solicita</text>
<text text-anchor="start" x="1205.28" y="-1721" font-family="Arial" font-size="10.00">reporte</text>
</g>
<!-- storage -->
<g id="node26" class="node">
<title>storage</title>
<path fill="#ef9a9a" stroke="black" d="M2818.8,-1776.92C2818.8,-1782.8 2782.16,-1787.58 2737.06,-1787.58 2691.95,-1787.58 2655.31,-1782.8 2655.31,-1776.92 2655.31,-1776.92 2655.31,-1681.08 2655.31,-1681.08 2655.31,-1675.2 2691.95,-1670.42 2737.06,-1670.42 2782.16,-1670.42 2818.8,-1675.2 2818.8,-1681.08 2818.8,-1681.08 2818.8,-1776.92 2818.8,-1776.92"/>
<path fill="none" stroke="black" d="M2818.8,-1776.92C2818.8,-1771.05 2782.16,-1766.27 2737.06,-1766.27 2691.95,-1766.27 2655.31,-1771.05 2655.31,-1776.92"/>
<text text-anchor="start" x="2680.34" y="-1744.5" font-family="Arial" font-weight="bold" font-size="13.00">Archivos de Disco</text>
<text text-anchor="start" x="2671.71" y="-1724.8" font-family="Arial" font-size="12.00">• Discos virtuales (.dsk)</text>
<text text-anchor="start" x="2677.37" y="-1706.4" font-family="Arial" font-size="12.00">• Estructuras binarias</text>
</g>
<!-- diskOps&#45;&gt;storage -->
<g id="edge31" class="edge">
<title>diskOps-&gt;storage</title>
<path fill="none" stroke="#2e7d32" d="M2510.92,-1668.24C2552.57,-1679.48 2602,-1692.82 2643.93,-1704.14"/>
<polygon fill="#2e7d32" stroke="#2e7d32" points="2642.95,-1707.5 2653.52,-1706.73 2644.77,-1700.74 2642.95,-1707.5"/>
<text text-anchor="start" x="2565.83" y="-1699.61" font-family="Arial" font-size="10.00">Lee/Escribe</text>
</g>
<!-- partitionOps&#45;&gt;storage -->
<g id="edge32" class="edge">
<title>partitionOps-&gt;storage</title>
<path fill="none" stroke="#2e7d32" d="M2505.16,-1544.24C2529.59,-1559.42 2549.83,-1572 2549.83,-1572 2549.83,-1572 2609.33,-1622.16 2661.06,-1665.77"/>
<polygon fill="#2e7d32" stroke="#2e7d32" points="2658.56,-1668.24 2668.46,-1672.01 2663.07,-1662.89 2658.56,-1668.24"/>
<text text-anchor="start" x="2565.83" y="-1630.26" font-family="Arial" font-size="10.00">Lee/Escribe</text>
</g>
<!-- filesystem&#45;&gt;backend -->
<g id="edge41" class="edge">
<title>filesystem-&gt;backend</title>
<path fill="none" stroke="#ffa000" d="M2038.57,-1980.09C1982.24,-2034.76 1885.18,-2128.96 1824.96,-2187.41"/>
<polygon fill="#ffa000" stroke="#ffa000" points="1822.54,-2184.88 1817.8,-2194.36 1827.41,-2189.9 1822.54,-2184.88"/>
<text text-anchor="start" x="1905.27" y="-2121.08" font-family="Arial" font-size="10.00">Devuelve</text>
<text text-anchor="start" x="1905.54" y="-2109.08" font-family="Arial" font-size="10.00">resultado</text>
</g>
<!-- fsOps -->
<g id="node21" class="node">
<title>fsOps</title>
<polygon fill="#ffca28" stroke="black" points="2514.88,-2046 2325.29,-2046 2325.29,-1924 2514.88,-1924 2514.88,-2046"/>
<text text-anchor="start" x="2341.69" y="-2018.9" font-family="Arial" font-weight="bold" font-size="13.00">Operaciones de Archivos</text>
<text text-anchor="start" x="2363.41" y="-1999.2" font-family="Arial" font-size="12.00">• Formatear (MKFS)</text>
<text text-anchor="start" x="2346.08" y="-1980.8" font-family="Arial" font-size="12.00">• Crear Directorio (MKDIR)</text>
<text text-anchor="start" x="2349.41" y="-1962.4" font-family="Arial" font-size="12.00">• Crear Archivo (MKFILE)</text>
<text text-anchor="start" x="2362.07" y="-1944" font-family="Arial" font-size="12.00">• Leer Archivo (CAT)</text>
</g>
<!-- filesystem&#45;&gt;fsOps -->
<g id="edge26" class="edge">
<title>filesystem-&gt;fsOps</title>
<path fill="none" stroke="black" d="M2171.44,-1949.42C2214.94,-1955.67 2268.02,-1963.3 2313.86,-1969.88"/>
<polygon fill="black" stroke="black" points="2313.15,-1973.32 2323.55,-1971.28 2314.15,-1966.39 2313.15,-1973.32"/>
<text text-anchor="start" x="2217.64" y="-1978.87" font-family="Arial" font-size="10.00">Operaciones</text>
<text text-anchor="start" x="2227.37" y="-1966.87" font-family="Arial" font-size="10.00">archivos</text>
</g>
<!-- filesystem&#45;&gt;usersOps -->
<g id="edge27" class="edge">
<title>filesystem-&gt;usersOps</title>
<path fill="none" stroke="black" d="M2171.44,-1905.16C2218.54,-1887.83 2276.87,-1866.35 2325.09,-1848.6"/>
<polygon fill="black" stroke="black" points="2326.26,-1851.9 2334.43,-1845.16 2323.84,-1845.33 2326.26,-1851.9"/>
<text text-anchor="start" x="2228.76" y="-1901.52" font-family="Arial" font-size="10.00">Gestión</text>
<text text-anchor="start" x="2227.09" y="-1889.52" font-family="Arial" font-size="10.00">usuarios</text>
</g>
<!-- fsOps&#45;&gt;storage -->
<g id="edge33" class="edge">
<title>fsOps-&gt;storage</title>
<path fill="none" stroke="#2e7d32" d="M2508.74,-1923.72C2531.54,-1907.79 2549.83,-1895 2549.83,-1895 2549.83,-1895 2611.94,-1839.64 2664.42,-1792.86"/>
<polygon fill="#2e7d32" stroke="#2e7d32" points="2666.48,-1795.71 2671.62,-1786.44 2661.83,-1790.48 2666.48,-1795.71"/>
<text text-anchor="start" x="2565.83" y="-1880.74" font-family="Arial" font-size="10.00">Lee/Escribe</text>
</g>
<!-- usersOps&#45;&gt;storage -->
<g id="edge34" class="edge">
<title>usersOps-&gt;storage</title>
<path fill="none" stroke="#2e7d32" d="M2504.25,-1791.56C2547.18,-1779.97 2599.67,-1765.81 2643.84,-1753.89"/>
<polygon fill="#2e7d32" stroke="#2e7d32" points="2644.67,-1757.29 2653.42,-1751.3 2642.85,-1750.53 2644.67,-1757.29"/>
<text text-anchor="start" x="2565.83" y="-1777.05" font-family="Arial" font-size="10.00">Lee/Escribe</text>
</g>
<!-- reportOps -->
<g id="node24" class="node">
<title>reportOps</title>
<polygon fill="#ba68c8" stroke="black" points="792.12,-997.8 613.26,-997.8 613.26,-894.2 792.12,-894.2 792.12,-997.8"/>
<text text-anchor="start" x="645.99" y="-970.7" font-family="Arial" font-weight="bold" font-size="13.00">Tipos de Reportes</text>
<text text-anchor="start" x="629.66" y="-951" font-family="Arial" font-size="12.00">• MBR, Disk, SuperBloque</text>
<text text-anchor="start" x="636.99" y="-932.6" font-family="Arial" font-size="12.00">• Inodo, Bloque, Bitmap</text>
<text text-anchor="start" x="660.01" y="-914.2" font-family="Arial" font-size="12.00">• Tree, File, LS</text>
</g>
<!-- reports&#45;&gt;reportOps -->
<g id="edge29" class="edge">
<title>reports-&gt;reportOps</title>
<path fill="none" stroke="black" d="M342.95,-952.42C417.45,-951.09 524.21,-949.18 601.89,-947.79"/>
<polygon fill="black" stroke="black" points="601.68,-951.29 611.61,-947.61 601.55,-944.29 601.68,-951.29"/>
<text text-anchor="start" x="543.91" y="-963.82" font-family="Arial" font-size="10.00">Genera</text>
<text text-anchor="start" x="544.75" y="-951.82" font-family="Arial" font-size="10.00">reporte</text>
</g>
<!-- reportFiles -->
<g id="node25" class="node">
<title>reportFiles</title>
<polygon fill="#ab47bc" stroke="black" points="1089,-987.6 920.81,-987.6 920.81,-902.4 1095,-902.4 1095,-981.6 1089,-987.6"/>
<polyline fill="none" stroke="black" points="1089,-987.6 1089,-981.6"/>
<polyline fill="none" stroke="black" points="1095,-981.6 1089,-981.6"/>
<text text-anchor="start" x="944.34" y="-960.5" font-family="Arial" font-weight="bold" font-size="13.00">Archivos de Reporte</text>
<text text-anchor="start" x="957.9" y="-940.8" font-family="Arial" font-size="12.00">• JPG, PNG, PDF</text>
<text text-anchor="start" x="937.21" y="-922.4" font-family="Arial" font-size="12.00">• Visualización interactiva</text>
</g>
<!-- reportOps&#45;&gt;reportFiles -->
<g id="edge30" class="edge">
<title>reportOps-&gt;reportFiles</title>
<path fill="none" stroke="black" d="M792.62,-945.71C829.12,-945.59 871.51,-945.45 908.9,-945.32"/>
<polygon fill="black" stroke="black" points="908.83,-948.82 918.82,-945.29 908.81,-941.82 908.83,-948.82"/>
<text text-anchor="start" x="828.12" y="-960.59" font-family="Arial" font-size="10.00">Crea archivo</text>
<text text-anchor="start" x="833.67" y="-948.59" font-family="Arial" font-size="10.00">de reporte</text>
</g>
<!-- reportFiles&#45;&gt;frontend -->
<g id="edge40" class="edge">
<title>reportFiles-&gt;frontend</title>
<path fill="none" stroke="#9c27b0" d="M1019.84,-902.04C1055.79,-760.84 1168,-320 1168,-320 1168,-320 1168,-320 1465.11,-320 1465.11,-320 1669.71,-155 1669.71,-155 1669.71,-155 1680.18,-148.09 1694.35,-138.75"/>
<polygon fill="#9c27b0" stroke="#9c27b0" points="1695.91,-141.92 1702.33,-133.49 1692.05,-136.07 1695.91,-141.92"/>
<text text-anchor="start" x="1273.24" y="-323" font-family="Arial" font-size="10.00">Visualiza</text>
</g>
<!-- l_normal -->
<g id="node27" class="node">
<title>l_normal</title>
<polygon fill="#ffffff" stroke="none" points="346.73,-1227.6 161.19,-1227.6 161.19,-1180.4 346.73,-1180.4 346.73,-1227.6"/>
<text text-anchor="start" x="177.59" y="-1200.4" font-family="Arial" font-size="12.00">→</text>
<text text-anchor="start" x="191.59" y="-1200.4" font-family="Arial" font-size="12.00">Flujo normal de operación</text>
</g>
<!-- l_confirm -->
<g id="node28" class="node">
<title>l_confirm</title>
<polygon fill="#ffffff" stroke="none" points="351.38,-1332.6 156.53,-1332.6 156.53,-1285.4 351.38,-1285.4 351.38,-1332.6"/>
<text text-anchor="start" x="172.93" y="-1305.4" font-family="Arial" font-size="12.00" fill="red">- - →</text>
<text text-anchor="start" x="201.59" y="-1305.4" font-family="Arial" font-size="12.00">Solicitud de confirmación</text>
</g>
<!-- l_response -->
<g id="node29" class="node">
<title>l_response</title>
<polygon fill="#ffffff" stroke="none" points="357.39,-1437.6 150.52,-1437.6 150.52,-1390.4 357.39,-1390.4 357.39,-1437.6"/>
<text text-anchor="start" x="166.92" y="-1410.4" font-family="Arial" font-size="12.00" fill="blue">- - →</text>
<text text-anchor="start" x="195.58" y="-1410.4" font-family="Arial" font-size="12.00">Respuesta de confirmación</text>
</g>
<!-- l_api -->
<g id="node30" class="node">
<title>l_api</title>
<polygon fill="#ffffff" stroke="none" points="335.05,-1542.6 172.86,-1542.6 172.86,-1495.4 335.05,-1495.4 335.05,-1542.6"/>
<text text-anchor="start" x="189.26" y="-1515.4" font-family="Arial" font-size="12.00" fill="#ff5722">→</text>
<text text-anchor="start" x="203.26" y="-1515.4" font-family="Arial" font-size="12.00">Respuesta API REST</text>
</g>
</g>
</svg>