<svg xmlns="http://www.w3.org/2000/svg" xmlns:xlink="http://www.w3.org/1999/xlink" width="2299pt" height="1356pt" viewBox="36.00 36.00 2262.73 1320.00">
<g id="graph0" class="graph" transform="scale(1 1) rotate(0) translate(40 1316)">
<title>ReportCommands</title>
<polygon fill="white" stroke="none" points="-4,4 -4,-1280 2222.73,-1280 2222.73,4 -4,4"/>
<g id="clust1" class="cluster">
<title>cluster_report_commands</title>
<polygon fill="#fff3e0" stroke="black" points="8,-195 8,-554 691.7,-554 691.7,-195 8,-195"/>
<text text-anchor="start" x="218.92" y="-536.6" font-family="Arial" font-size="14.00">            </text>
<text text-anchor="start" x="265.6" y="-536.6" font-family="Arial" font-weight="bold" font-size="16.00">Generación de Reportes</text>
<text text-anchor="start" x="449.66" y="-536.6" font-family="Arial" font-size="14.00">        </text>
</g>
<g id="clust2" class="cluster">
<title>cluster_report_types</title>
<polygon fill="#fff8e1" stroke="black" points="751.05,-8 751.05,-717 1231.35,-717 1231.35,-8 751.05,-8"/>
<text text-anchor="start" x="882.51" y="-699.6" font-family="Arial" font-size="14.00">            </text>
<text text-anchor="start" x="929.19" y="-699.6" font-family="Arial" font-weight="bold" font-size="16.00">Tipos de Reportes</text>
<text text-anchor="start" x="1068.77" y="-699.6" font-family="Arial" font-size="14.00">        </text>
</g>
<g id="clust3" class="cluster">
<title>cluster_formats</title>
<polygon fill="#fffde7" stroke="black" points="1356.83,-21 1356.83,-457 2210.73,-457 2210.73,-21 1356.83,-21"/>
<text text-anchor="start" x="1661.77" y="-439.6" font-family="Arial" font-size="14.00">            </text>
<text text-anchor="start" x="1708.44" y="-439.6" font-family="Arial" font-weight="bold" font-size="16.00">Formatos Soportados</text>
<text text-anchor="start" x="1874.68" y="-439.6" font-family="Arial" font-size="14.00">        </text>
</g>
<g id="clust4" class="cluster">
<title>cluster_reference</title>
<polygon fill="#fafafa" stroke="black" points="140.21,-554 140.21,-879 559.48,-879 559.48,-554 140.21,-554"/>
<text text-anchor="start" x="270.04" y="-861.6" font-family="Arial" font-size="14.00">            </text>
<text text-anchor="start" x="316.72" y="-861.6" font-family="Arial" font-weight="bold" font-size="16.00">Referencia</text>
<text text-anchor="start" x="398.54" y="-861.6" font-family="Arial" font-size="14.00">        </text>
</g>
<g id="clust5" class="cluster">
<title>cluster_examples</title>
<polygon fill="#e8f5e9" stroke="black" points="8,-879 8,-1268 691.7,-1268 691.7,-879 8,-879"/>
<text text-anchor="start" x="236.71" y="-1250.6" font-family="Arial" font-size="14.00">            </text>
<text text-anchor="start" x="283.39" y="-1250.6" font-family="Arial" font-weight="bold" font-size="16.00">Ejemplos Comunes</text>
<text text-anchor="start" x="431.87" y="-1250.6" font-family="Arial" font-size="14.00">        </text>
</g>
<!-- title -->
<g id="node1" class="node">
<title>title</title>
<polygon fill="lightgrey" stroke="none" points="501.25,-164.8 198.45,-164.8 198.45,-87.2 501.25,-87.2 501.25,-164.8"/>
<text text-anchor="start" x="237.61" y="-131.4" font-family="Arial" font-weight="bold" font-size="20.00">Comandos de Reportes</text>
<text text-anchor="start" x="214.85" y="-107.8" font-family="Arial" font-size="14.00">Sistema de Administración de Discos EXT2</text>
</g>
<!-- rep -->
<g id="node2" class="node">
<title>rep</title>
<polygon fill="#ffe0b2" stroke="black" points="671.7,-507.2 28,-507.2 28,-214.8 671.7,-214.8 671.7,-507.2"/>
<polygon fill="#e65100" stroke="none" points="42.4,-468.4 42.4,-492.8 657.3,-492.8 657.3,-468.4 42.4,-468.4"/>
<polygon fill="none" stroke="black" points="42.4,-468.4 42.4,-492.8 657.3,-492.8 657.3,-468.4 42.4,-468.4"/>
<text text-anchor="start" x="337.51" y="-478" font-family="Arial" font-weight="bold" font-size="12.00" fill="white">REP</text>
<polygon fill="#ffe0b2" stroke="none" points="42.4,-444 42.4,-468.4 657.3,-468.4 657.3,-444 42.4,-444"/>
<polygon fill="none" stroke="black" points="42.4,-444 42.4,-468.4 657.3,-468.4 657.3,-444 42.4,-444"/>
<text text-anchor="start" x="251.47" y="-453.6" font-family="Arial" font-style="italic" font-size="12.00">Genera reportes gráficos del sistema</text>
<polygon fill="#fff3e0" stroke="none" points="42.4,-419.6 42.4,-444 176.66,-444 176.66,-419.6 42.4,-419.6"/>
<polygon fill="none" stroke="black" points="42.4,-419.6 42.4,-444 176.66,-444 176.66,-419.6 42.4,-419.6"/>
<text text-anchor="start" x="79.85" y="-429.2" font-family="Arial" font-weight="bold" font-size="12.00">Parámetro</text>
<polygon fill="#fff3e0" stroke="none" points="176.66,-419.6 176.66,-444 316.6,-444 316.6,-419.6 176.66,-419.6"/>
<polygon fill="none" stroke="black" points="176.66,-419.6 176.66,-444 316.6,-444 316.6,-419.6 176.66,-419.6"/>
<text text-anchor="start" x="216.96" y="-429.2" font-family="Arial" font-weight="bold" font-size="12.00">Requerido</text>
<polygon fill="#fff3e0" stroke="none" points="316.6,-419.6 316.6,-444 657.3,-444 657.3,-419.6 316.6,-419.6"/>
<polygon fill="none" stroke="black" points="316.6,-419.6 316.6,-444 657.3,-444 657.3,-419.6 316.6,-419.6"/>
<text text-anchor="start" x="452.94" y="-429.2" font-family="Arial" font-weight="bold" font-size="12.00">Descripción</text>
<polygon fill="none" stroke="black" points="42.4,-395.2 42.4,-419.6 176.66,-419.6 176.66,-395.2 42.4,-395.2"/>
<text text-anchor="start" x="79.35" y="-403.8" font-family="Arial" font-size="12.00">-name=tipo</text>
<polygon fill="none" stroke="black" points="176.66,-395.2 176.66,-419.6 316.6,-419.6 316.6,-395.2 176.66,-395.2"/>
<text text-anchor="start" x="239.3" y="-403.8" font-family="Arial" font-size="12.00">Sí</text>
<polygon fill="none" stroke="black" points="316.6,-395.2 316.6,-419.6 657.3,-419.6 657.3,-395.2 316.6,-395.2"/>
<text text-anchor="start" x="401.24" y="-403.8" font-family="Arial" font-size="12.00">Tipo de reporte (ver tabla abajo)</text>
<polygon fill="none" stroke="black" points="42.4,-370.8 42.4,-395.2 176.66,-395.2 176.66,-370.8 42.4,-370.8"/>
<text text-anchor="start" x="78.68" y="-379.4" font-family="Arial" font-size="12.00">-path=/ruta/</text>
<polygon fill="none" stroke="black" points="176.66,-370.8 176.66,-395.2 316.6,-395.2 316.6,-370.8 176.66,-370.8"/>
<text text-anchor="start" x="239.3" y="-379.4" font-family="Arial" font-size="12.00">Sí</text>
<polygon fill="none" stroke="black" points="316.6,-370.8 316.6,-395.2 657.3,-395.2 657.3,-370.8 316.6,-370.8"/>
<text text-anchor="start" x="406.56" y="-379.4" font-family="Arial" font-size="12.00">Ruta donde guardar el reporte</text>
<polygon fill="none" stroke="black" points="42.4,-346.4 42.4,-370.8 176.66,-370.8 176.66,-346.4 42.4,-346.4"/>
<text text-anchor="start" x="85.35" y="-355" font-family="Arial" font-size="12.00">-id=151A</text>
<polygon fill="none" stroke="black" points="176.66,-346.4 176.66,-370.8 316.6,-370.8 316.6,-346.4 176.66,-346.4"/>
<text text-anchor="start" x="239.3" y="-355" font-family="Arial" font-size="12.00">Sí</text>
<polygon fill="none" stroke="black" points="316.6,-346.4 316.6,-370.8 657.3,-370.8 657.3,-346.4 316.6,-346.4"/>
<text text-anchor="start" x="416.91" y="-355" font-family="Arial" font-size="12.00">ID de la partición montada</text>
<polygon fill="none" stroke="black" points="42.4,-322 42.4,-346.4 176.66,-346.4 176.66,-322 42.4,-322"/>
<text text-anchor="start" x="83.69" y="-330.6" font-family="Arial" font-size="12.00">-ruta=/dir/</text>
<polygon fill="none" stroke="black" points="176.66,-322 176.66,-346.4 316.6,-346.4 316.6,-322 176.66,-322"/>
<text text-anchor="start" x="212.94" y="-330.6" font-family="Arial" font-size="12.00">Condicional*</text>
<polygon fill="none" stroke="black" points="316.6,-322 316.6,-346.4 657.3,-346.4 657.3,-322 316.6,-322"/>
<text text-anchor="start" x="352.88" y="-330.6" font-family="Arial" font-size="12.00">Ruta dentro del sistema para reportes específicos</text>
<polygon fill="none" stroke="black" points="42.4,-300 42.4,-322 657.3,-322 657.3,-300 42.4,-300"/>
<text text-anchor="start" x="226.88" y="-308" font-family="Arial" font-size="10.00" fill="gray">* Parámetro -ruta= requerido para reportes tree, ls y file</text>
<polygon fill="#fff3e0" stroke="none" points="42.4,-278 42.4,-300 657.3,-300 657.3,-278 42.4,-278"/>
<polygon fill="none" stroke="black" points="42.4,-278 42.4,-300 657.3,-300 657.3,-278 42.4,-278"/>
<text text-anchor="start" x="325.96" y="-287" font-family="Arial" font-weight="bold" font-size="10.00">Ejemplos:</text>
<polygon fill="none" stroke="black" points="42.4,-253.6 42.4,-278 657.3,-278 657.3,-253.6 42.4,-253.6"/>
<text text-anchor="start" x="166.22" y="-262.2" font-family="Courier,monospace" font-size="12.00">REP -name=mbr -path=/home/reportes/mbr.jpg -id=151A</text>
<polygon fill="none" stroke="black" points="42.4,-229.2 42.4,-253.6 657.3,-253.6 657.3,-229.2 42.4,-229.2"/>
<text text-anchor="start" x="47.4" y="-237.8" font-family="Courier,monospace" font-size="12.00">REP -name=file -path=/home/reportes/archivo.txt -id=151A -ruta=/home/users/datos.txt</text>
</g>
<!-- disk_reports -->
<g id="node3" class="node">
<title>disk_reports</title>
<polygon fill="#ffecb3" stroke="black" points="1198.66,-670.2 783.74,-670.2 783.74,-521.8 1198.66,-521.8 1198.66,-670.2"/>
<polygon fill="#f57c00" stroke="none" points="798.14,-631.4 798.14,-655.8 1184.26,-655.8 1184.26,-631.4 798.14,-631.4"/>
<polygon fill="none" stroke="black" points="798.14,-631.4 798.14,-655.8 1184.26,-655.8 1184.26,-631.4 798.14,-631.4"/>
<text text-anchor="start" x="938.52" y="-641" font-family="Arial" font-weight="bold" font-size="12.00" fill="white">Reportes de Disco</text>
<polygon fill="#ffecb3" stroke="none" points="798.14,-607 798.14,-631.4 833.46,-631.4 833.46,-607 798.14,-607"/>
<polygon fill="none" stroke="black" points="798.14,-607 798.14,-631.4 833.46,-631.4 833.46,-607 798.14,-607"/>
<text text-anchor="start" x="803.14" y="-616.6" font-family="Arial" font-weight="bold" font-size="12.00">Tipo</text>
<polygon fill="#ffecb3" stroke="none" points="833.46,-607 833.46,-631.4 1087.58,-631.4 1087.58,-607 833.46,-607"/>
<polygon fill="none" stroke="black" points="833.46,-607 833.46,-631.4 1087.58,-631.4 1087.58,-607 833.46,-607"/>
<text text-anchor="start" x="926.51" y="-616.6" font-family="Arial" font-weight="bold" font-size="12.00">Descripción</text>
<polygon fill="#ffecb3" stroke="none" points="1087.58,-607 1087.58,-631.4 1184.26,-631.4 1184.26,-607 1087.58,-607"/>
<polygon fill="none" stroke="black" points="1087.58,-607 1087.58,-631.4 1184.26,-631.4 1184.26,-607 1087.58,-607"/>
<text text-anchor="start" x="1111.92" y="-616.6" font-family="Arial" font-weight="bold" font-size="12.00">Formato</text>
<polygon fill="none" stroke="black" points="798.14,-582.6 798.14,-607 833.46,-607 833.46,-582.6 798.14,-582.6"/>
<text text-anchor="start" x="805.47" y="-591.2" font-family="Arial" font-size="12.00">mbr</text>
<polygon fill="none" stroke="black" points="833.46,-582.6 833.46,-607 1087.58,-607 1087.58,-582.6 833.46,-582.6"/>
<text text-anchor="start" x="848.8" y="-591.2" font-family="Arial" font-size="12.00">Master Boot Record y tabla de particiones</text>
<polygon fill="none" stroke="black" points="1087.58,-582.6 1087.58,-607 1184.26,-607 1184.26,-582.6 1087.58,-582.6"/>
<text text-anchor="start" x="1092.58" y="-591.2" font-family="Arial" font-size="12.00">JPG, PNG, PDF</text>
<polygon fill="none" stroke="black" points="798.14,-558.2 798.14,-582.6 833.46,-582.6 833.46,-558.2 798.14,-558.2"/>
<text text-anchor="start" x="805.13" y="-566.8" font-family="Arial" font-size="12.00">disk</text>
<polygon fill="none" stroke="black" points="833.46,-558.2 833.46,-582.6 1087.58,-582.6 1087.58,-558.2 833.46,-558.2"/>
<text text-anchor="start" x="838.46" y="-566.8" font-family="Arial" font-size="12.00">Visualización gráfica del disco con particiones</text>
<polygon fill="none" stroke="black" points="1087.58,-558.2 1087.58,-582.6 1184.26,-582.6 1184.26,-558.2 1087.58,-558.2"/>
<text text-anchor="start" x="1092.58" y="-566.8" font-family="Arial" font-size="12.00">JPG, PNG, PDF</text>
<polygon fill="none" stroke="black" points="798.14,-536.2 798.14,-558.2 1184.26,-558.2 1184.26,-536.2 798.14,-536.2"/>
<text text-anchor="start" x="926.45" y="-544.2" font-family="Arial" font-size="10.00" fill="gray">No requieren parámetro -ruta</text>
</g>
<!-- rep&#45;&gt;disk_reports -->
<g id="edge1" class="edge">
<title>rep-&gt;disk_reports</title>
<path fill="none" stroke="#9e9e9e" stroke-dasharray="5,2" d="M672.2,-489.5C740.99,-489.5 793.4,-489.5 793.4,-489.5 793.4,-489.5 793.4,-509.94 793.4,-509.94"/>
<polygon fill="#9e9e9e" stroke="#9e9e9e" points="789.9,-509.94 793.4,-519.94 796.9,-509.94 789.9,-509.94"/>
<text text-anchor="middle" x="721.38" y="-515" font-family="Arial" font-size="10.00">Genera</text>
</g>
<!-- fs_reports -->
<g id="node4" class="node">
<title>fs_reports</title>
<polygon fill="#ffecb3" stroke="black" points="1179.34,-471.8 803.06,-471.8 803.06,-250.2 1179.34,-250.2 1179.34,-471.8"/>
<polygon fill="#f57c00" stroke="none" points="817.46,-433 817.46,-457.4 1164.94,-457.4 1164.94,-433 817.46,-433"/>
<polygon fill="none" stroke="black" points="817.46,-433 817.46,-457.4 1164.94,-457.4 1164.94,-433 817.46,-433"/>
<text text-anchor="start" x="895.83" y="-442.6" font-family="Arial" font-weight="bold" font-size="12.00" fill="white">Reportes de Sistema de Archivos</text>
<polygon fill="#ffecb3" stroke="none" points="817.46,-408.6 817.46,-433 880.16,-433 880.16,-408.6 817.46,-408.6"/>
<polygon fill="none" stroke="black" points="817.46,-408.6 817.46,-433 880.16,-433 880.16,-408.6 817.46,-408.6"/>
<text text-anchor="start" x="836.15" y="-418.2" font-family="Arial" font-weight="bold" font-size="12.00">Tipo</text>
<polygon fill="#ffecb3" stroke="none" points="880.16,-408.6 880.16,-433 1068.26,-433 1068.26,-408.6 880.16,-408.6"/>
<polygon fill="none" stroke="black" points="880.16,-408.6 880.16,-433 1068.26,-433 1068.26,-408.6 880.16,-408.6"/>
<text text-anchor="start" x="940.2" y="-418.2" font-family="Arial" font-weight="bold" font-size="12.00">Descripción</text>
<polygon fill="#ffecb3" stroke="none" points="1068.26,-408.6 1068.26,-433 1164.94,-433 1164.94,-408.6 1068.26,-408.6"/>
<polygon fill="none" stroke="black" points="1068.26,-408.6 1068.26,-433 1164.94,-433 1164.94,-408.6 1068.26,-408.6"/>
<text text-anchor="start" x="1092.6" y="-418.2" font-family="Arial" font-weight="bold" font-size="12.00">Formato</text>
<polygon fill="none" stroke="black" points="817.46,-384.2 817.46,-408.6 880.16,-408.6 880.16,-384.2 817.46,-384.2"/>
<text text-anchor="start" x="842.48" y="-392.8" font-family="Arial" font-size="12.00">sb</text>
<polygon fill="none" stroke="black" points="880.16,-384.2 880.16,-408.6 1068.26,-408.6 1068.26,-384.2 880.16,-384.2"/>
<text text-anchor="start" x="885.16" y="-392.8" font-family="Arial" font-size="12.00">SuperBloque con sus parámetros</text>
<polygon fill="none" stroke="black" points="1068.26,-384.2 1068.26,-408.6 1164.94,-408.6 1164.94,-384.2 1068.26,-384.2"/>
<text text-anchor="start" x="1073.26" y="-392.8" font-family="Arial" font-size="12.00">JPG, PNG, PDF</text>
<polygon fill="none" stroke="black" points="817.46,-359.8 817.46,-384.2 880.16,-384.2 880.16,-359.8 817.46,-359.8"/>
<text text-anchor="start" x="834.13" y="-368.4" font-family="Arial" font-size="12.00">inode</text>
<polygon fill="none" stroke="black" points="880.16,-359.8 880.16,-384.2 1068.26,-384.2 1068.26,-359.8 880.16,-359.8"/>
<text text-anchor="start" x="907.5" y="-368.4" font-family="Arial" font-size="12.00">Tabla de inodos y su uso</text>
<polygon fill="none" stroke="black" points="1068.26,-359.8 1068.26,-384.2 1164.94,-384.2 1164.94,-359.8 1068.26,-359.8"/>
<text text-anchor="start" x="1073.26" y="-368.4" font-family="Arial" font-size="12.00">JPG, PNG, PDF</text>
<polygon fill="none" stroke="black" points="817.46,-335.4 817.46,-359.8 880.16,-359.8 880.16,-335.4 817.46,-335.4"/>
<text text-anchor="start" x="834.81" y="-344" font-family="Arial" font-size="12.00">block</text>
<polygon fill="none" stroke="black" points="880.16,-335.4 880.16,-359.8 1068.26,-359.8 1068.26,-335.4 880.16,-335.4"/>
<text text-anchor="start" x="901.16" y="-344" font-family="Arial" font-size="12.00">Bloques de datos utilizados</text>
<polygon fill="none" stroke="black" points="1068.26,-335.4 1068.26,-359.8 1164.94,-359.8 1164.94,-335.4 1068.26,-335.4"/>
<text text-anchor="start" x="1073.26" y="-344" font-family="Arial" font-size="12.00">JPG, PNG, PDF</text>
<polygon fill="none" stroke="black" points="817.46,-311 817.46,-335.4 880.16,-335.4 880.16,-311 817.46,-311"/>
<text text-anchor="start" x="822.46" y="-319.6" font-family="Arial" font-size="12.00">bm_inode</text>
<polygon fill="none" stroke="black" points="880.16,-311 880.16,-335.4 1068.26,-335.4 1068.26,-311 880.16,-311"/>
<text text-anchor="start" x="913.85" y="-319.6" font-family="Arial" font-size="12.00">Bitmap de inodos (0/1)</text>
<polygon fill="none" stroke="black" points="1068.26,-311 1068.26,-335.4 1164.94,-335.4 1164.94,-311 1068.26,-311"/>
<text text-anchor="start" x="1073.93" y="-319.6" font-family="Arial" font-size="12.00">TXT, JPG, PNG</text>
<polygon fill="none" stroke="black" points="817.46,-286.6 817.46,-311 880.16,-311 880.16,-286.6 817.46,-286.6"/>
<text text-anchor="start" x="823.13" y="-295.2" font-family="Arial" font-size="12.00">bm_block</text>
<polygon fill="none" stroke="black" points="880.16,-286.6 880.16,-311 1068.26,-311 1068.26,-286.6 880.16,-286.6"/>
<text text-anchor="start" x="910.51" y="-295.2" font-family="Arial" font-size="12.00">Bitmap de bloques (0/1)</text>
<polygon fill="none" stroke="black" points="1068.26,-286.6 1068.26,-311 1164.94,-311 1164.94,-286.6 1068.26,-286.6"/>
<text text-anchor="start" x="1073.93" y="-295.2" font-family="Arial" font-size="12.00">TXT, JPG, PNG</text>
<polygon fill="none" stroke="black" points="817.46,-264.6 817.46,-286.6 1164.94,-286.6 1164.94,-264.6 817.46,-264.6"/>
<text text-anchor="start" x="926.45" y="-272.6" font-family="Arial" font-size="10.00" fill="gray">No requieren parámetro -ruta</text>
</g>
<!-- rep&#45;&gt;fs_reports -->
<g id="edge2" class="edge">
<title>rep-&gt;fs_reports</title>
<path fill="none" stroke="#9e9e9e" stroke-dasharray="5,2" d="M671.93,-361C671.93,-361 791.23,-361 791.23,-361"/>
<polygon fill="#9e9e9e" stroke="#9e9e9e" points="791.23,-364.5 801.23,-361 791.23,-357.5 791.23,-364.5"/>
<text text-anchor="middle" x="721.38" y="-364" font-family="Arial" font-size="10.00">Genera</text>
</g>
<!-- content_reports -->
<g id="node5" class="node">
<title>content_reports</title>
<polygon fill="#ffecb3" stroke="black" points="1211.35,-200.4 771.05,-200.4 771.05,-27.6 1211.35,-27.6 1211.35,-200.4"/>
<polygon fill="#f57c00" stroke="none" points="785.45,-161.6 785.45,-186 1196.95,-186 1196.95,-161.6 785.45,-161.6"/>
<polygon fill="none" stroke="black" points="785.45,-161.6 785.45,-186 1196.95,-186 1196.95,-161.6 785.45,-161.6"/>
<text text-anchor="start" x="925.2" y="-171.2" font-family="Arial" font-weight="bold" font-size="12.00" fill="white">Reportes de Contenido</text>
<polygon fill="#ffecb3" stroke="none" points="785.45,-137.2 785.45,-161.6 820.78,-161.6 820.78,-137.2 785.45,-137.2"/>
<polygon fill="none" stroke="black" points="785.45,-137.2 785.45,-161.6 820.78,-161.6 820.78,-137.2 785.45,-137.2"/>
<text text-anchor="start" x="790.45" y="-146.8" font-family="Arial" font-weight="bold" font-size="12.00">Tipo</text>
<polygon fill="#ffecb3" stroke="none" points="820.78,-137.2 820.78,-161.6 1100.27,-161.6 1100.27,-137.2 820.78,-137.2"/>
<polygon fill="none" stroke="black" points="820.78,-137.2 820.78,-161.6 1100.27,-161.6 1100.27,-137.2 820.78,-137.2"/>
<text text-anchor="start" x="926.51" y="-146.8" font-family="Arial" font-weight="bold" font-size="12.00">Descripción</text>
<polygon fill="#ffecb3" stroke="none" points="1100.27,-137.2 1100.27,-161.6 1196.95,-161.6 1196.95,-137.2 1100.27,-137.2"/>
<polygon fill="none" stroke="black" points="1100.27,-137.2 1100.27,-161.6 1196.95,-161.6 1196.95,-137.2 1100.27,-137.2"/>
<text text-anchor="start" x="1124.61" y="-146.8" font-family="Arial" font-weight="bold" font-size="12.00">Formato</text>
<polygon fill="none" stroke="black" points="785.45,-112.8 785.45,-137.2 820.78,-137.2 820.78,-112.8 785.45,-112.8"/>
<text text-anchor="start" x="792.78" y="-121.4" font-family="Arial" font-size="12.00">tree</text>
<polygon fill="none" stroke="black" points="820.78,-112.8 820.78,-137.2 1100.27,-137.2 1100.27,-112.8 820.78,-112.8"/>
<text text-anchor="start" x="880.82" y="-121.4" font-family="Arial" font-size="12.00">Árbol de directorios y archivos</text>
<polygon fill="none" stroke="black" points="1100.27,-112.8 1100.27,-137.2 1196.95,-137.2 1196.95,-112.8 1100.27,-112.8"/>
<text text-anchor="start" x="1105.27" y="-121.4" font-family="Arial" font-size="12.00">JPG, PNG, PDF</text>
<polygon fill="none" stroke="black" points="785.45,-88.4 785.45,-112.8 820.78,-112.8 820.78,-88.4 785.45,-88.4"/>
<text text-anchor="start" x="798.78" y="-97" font-family="Arial" font-size="12.00">ls</text>
<polygon fill="none" stroke="black" points="820.78,-88.4 820.78,-112.8 1100.27,-112.8 1100.27,-88.4 820.78,-88.4"/>
<text text-anchor="start" x="844.81" y="-97" font-family="Arial" font-size="12.00">Listado de directorio (similar al comando ls)</text>
<polygon fill="none" stroke="black" points="1100.27,-88.4 1100.27,-112.8 1196.95,-112.8 1196.95,-88.4 1100.27,-88.4"/>
<text text-anchor="start" x="1105.27" y="-97" font-family="Arial" font-size="12.00">JPG, PNG, PDF</text>
<polygon fill="none" stroke="black" points="785.45,-64 785.45,-88.4 820.78,-88.4 820.78,-64 785.45,-64"/>
<text text-anchor="start" x="795.45" y="-72.6" font-family="Arial" font-size="12.00">file</text>
<polygon fill="none" stroke="black" points="820.78,-64 820.78,-88.4 1100.27,-88.4 1100.27,-64 820.78,-64"/>
<text text-anchor="start" x="825.78" y="-72.6" font-family="Arial" font-size="12.00">Visualización de contenido y metadatos de archivo</text>
<polygon fill="none" stroke="black" points="1100.27,-64 1100.27,-88.4 1196.95,-88.4 1196.95,-64 1100.27,-64"/>
<text text-anchor="start" x="1105.94" y="-72.6" font-family="Arial" font-size="12.00">TXT, JPG, PNG</text>
<polygon fill="none" stroke="black" points="785.45,-42 785.45,-64 1196.95,-64 1196.95,-42 785.45,-42"/>
<text text-anchor="start" x="932.28" y="-50" font-family="Arial" font-size="10.00" fill="gray">Requieren parámetro -ruta</text>
</g>
<!-- rep&#45;&gt;content_reports -->
<g id="edge3" class="edge">
<title>rep-&gt;content_reports</title>
<path fill="none" stroke="#9e9e9e" stroke-dasharray="5,2" d="M671.98,-225.7C732.59,-225.7 777.4,-225.7 777.4,-225.7 777.4,-225.7 777.4,-212.15 777.4,-212.15"/>
<polygon fill="#9e9e9e" stroke="#9e9e9e" points="780.9,-212.15 777.4,-202.15 773.9,-212.15 780.9,-212.15"/>
<text text-anchor="middle" x="721.38" y="-207" font-family="Arial" font-size="10.00">Genera</text>
</g>
<!-- graph_formats -->
<g id="node6" class="node">
<title>graph_formats</title>
<polygon fill="#fff9c4" stroke="black" points="1696.41,-409.4 1376.83,-409.4 1376.83,-236.6 1696.41,-236.6 1696.41,-409.4"/>
<polygon fill="#ffb300" stroke="none" points="1391.23,-370.6 1391.23,-395 1682.01,-395 1682.01,-370.6 1391.23,-370.6"/>
<polygon fill="none" stroke="black" points="1391.23,-370.6 1391.23,-395 1682.01,-395 1682.01,-370.6 1391.23,-370.6"/>
<text text-anchor="start" x="1483.28" y="-380.2" font-family="Arial" font-weight="bold" font-size="12.00" fill="white">Formatos Gráficos</text>
<polygon fill="#fff9c4" stroke="none" points="1391.23,-346.2 1391.23,-370.6 1457.92,-370.6 1457.92,-346.2 1391.23,-346.2"/>
<polygon fill="none" stroke="black" points="1391.23,-346.2 1391.23,-370.6 1457.92,-370.6 1457.92,-346.2 1391.23,-346.2"/>
<text text-anchor="start" x="1396.23" y="-355.8" font-family="Arial" font-weight="bold" font-size="12.00">Extensión</text>
<polygon fill="#fff9c4" stroke="none" points="1457.92,-346.2 1457.92,-370.6 1682.01,-370.6 1682.01,-346.2 1457.92,-346.2"/>
<polygon fill="none" stroke="black" points="1457.92,-346.2 1457.92,-370.6 1682.01,-370.6 1682.01,-346.2 1457.92,-346.2"/>
<text text-anchor="start" x="1535.95" y="-355.8" font-family="Arial" font-weight="bold" font-size="12.00">Descripción</text>
<polygon fill="none" stroke="black" points="1391.23,-321.8 1391.23,-346.2 1457.92,-346.2 1457.92,-321.8 1391.23,-321.8"/>
<text text-anchor="start" x="1398.56" y="-330.4" font-family="Arial" font-size="12.00">.jpg, .jpeg</text>
<polygon fill="none" stroke="black" points="1457.92,-321.8 1457.92,-346.2 1682.01,-346.2 1682.01,-321.8 1457.92,-321.8"/>
<text text-anchor="start" x="1462.92" y="-330.4" font-family="Arial" font-size="12.00">Imagen JPEG (compresión con pérdida)</text>
<polygon fill="none" stroke="black" points="1391.23,-297.4 1391.23,-321.8 1457.92,-321.8 1457.92,-297.4 1391.23,-297.4"/>
<text text-anchor="start" x="1412.9" y="-306" font-family="Arial" font-size="12.00">.png</text>
<polygon fill="none" stroke="black" points="1457.92,-297.4 1457.92,-321.8 1682.01,-321.8 1682.01,-297.4 1457.92,-297.4"/>
<text text-anchor="start" x="1481.92" y="-306" font-family="Arial" font-size="12.00">Imagen PNG (con transparencia)</text>
<polygon fill="none" stroke="black" points="1391.23,-273 1391.23,-297.4 1457.92,-297.4 1457.92,-273 1391.23,-273"/>
<text text-anchor="start" x="1414.57" y="-281.6" font-family="Arial" font-size="12.00">.pdf</text>
<polygon fill="none" stroke="black" points="1457.92,-273 1457.92,-297.4 1682.01,-297.4 1682.01,-273 1457.92,-273"/>
<text text-anchor="start" x="1497.61" y="-281.6" font-family="Arial" font-size="12.00">Documento PDF (vectorial)</text>
<polygon fill="none" stroke="black" points="1391.23,-251 1391.23,-273 1682.01,-273 1682.01,-251 1391.23,-251"/>
<text text-anchor="start" x="1429.36" y="-259" font-family="Arial" font-size="10.00" fill="gray">Para reportes visuales como mbr, disk, tree, etc.</text>
</g>
<!-- disk_reports&#45;&gt;graph_formats -->
<g id="edge4" class="edge">
<title>disk_reports-&gt;graph_formats</title>
<path fill="none" stroke="#9e9e9e" stroke-dasharray="5,2" d="M1189,-521.55C1189,-455.57 1189,-369.6 1189,-369.6 1189,-369.6 1365.03,-369.6 1365.03,-369.6"/>
<polygon fill="#9e9e9e" stroke="#9e9e9e" points="1365.03,-373.1 1375.03,-369.6 1365.03,-366.1 1365.03,-373.1"/>
<text text-anchor="middle" x="1294.09" y="-495" font-family="Arial" font-size="10.00">Exporta como</text>
</g>
<!-- fs_reports&#45;&gt;graph_formats -->
<g id="edge5" class="edge">
<title>fs_reports-&gt;graph_formats</title>
<path fill="none" stroke="#9e9e9e" stroke-dasharray="5,2" d="M1179.67,-329.8C1179.67,-329.8 1365.2,-329.8 1365.2,-329.8"/>
<polygon fill="#9e9e9e" stroke="#9e9e9e" points="1365.2,-333.3 1375.2,-329.8 1365.2,-326.3 1365.2,-333.3"/>
<text text-anchor="middle" x="1294.09" y="-325" font-family="Arial" font-size="10.00">Exporta como</text>
</g>
<!-- text_formats -->
<g id="node7" class="node">
<title>text_formats</title>
<polygon fill="#fff9c4" stroke="black" points="1681.09,-187 1392.15,-187 1392.15,-41 1681.09,-41 1681.09,-187"/>
<polygon fill="#ffb300" stroke="none" points="1406.55,-148.2 1406.55,-172.6 1666.69,-172.6 1666.69,-148.2 1406.55,-148.2"/>
<polygon fill="none" stroke="black" points="1406.55,-148.2 1406.55,-172.6 1666.69,-172.6 1666.69,-148.2 1406.55,-148.2"/>
<text text-anchor="start" x="1482.94" y="-157.8" font-family="Arial" font-weight="bold" font-size="12.00" fill="white">Formatos de Texto</text>
<polygon fill="#fff9c4" stroke="none" points="1406.55,-123.8 1406.55,-148.2 1493.61,-148.2 1493.61,-123.8 1406.55,-123.8"/>
<polygon fill="none" stroke="black" points="1406.55,-123.8 1406.55,-148.2 1493.61,-148.2 1493.61,-123.8 1406.55,-123.8"/>
<text text-anchor="start" x="1421.74" y="-133.4" font-family="Arial" font-weight="bold" font-size="12.00">Extensión</text>
<polygon fill="#fff9c4" stroke="none" points="1493.61,-123.8 1493.61,-148.2 1666.69,-148.2 1666.69,-123.8 1493.61,-123.8"/>
<polygon fill="none" stroke="black" points="1493.61,-123.8 1493.61,-148.2 1666.69,-148.2 1666.69,-123.8 1493.61,-123.8"/>
<text text-anchor="start" x="1546.13" y="-133.4" font-family="Arial" font-weight="bold" font-size="12.00">Descripción</text>
<polygon fill="none" stroke="black" points="1406.55,-99.4 1406.55,-123.8 1493.61,-123.8 1493.61,-99.4 1406.55,-99.4"/>
<text text-anchor="start" x="1442.08" y="-108" font-family="Arial" font-size="12.00">.txt</text>
<polygon fill="none" stroke="black" points="1493.61,-99.4 1493.61,-123.8 1666.69,-123.8 1666.69,-99.4 1493.61,-99.4"/>
<text text-anchor="start" x="1508.8" y="-108" font-family="Arial" font-size="12.00">Texto plano (ASCII/UTF-8)</text>
<polygon fill="none" stroke="black" points="1406.55,-77.4 1406.55,-99.4 1666.69,-99.4 1666.69,-77.4 1406.55,-77.4"/>
<text text-anchor="start" x="1416.83" y="-85.4" font-family="Arial" font-size="10.00" fill="gray">Para reportes de texto como file, bm_inode, bm_block</text>
<polygon fill="none" stroke="black" points="1406.55,-55.4 1406.55,-77.4 1666.69,-77.4 1666.69,-55.4 1406.55,-55.4"/>
<text text-anchor="start" x="1411.55" y="-63.4" font-family="Arial" font-size="10.00" fill="gray">Muestra datos en formato de texto para mejor legibilidad</text>
</g>
<!-- fs_reports&#45;&gt;text_formats -->
<g id="edge6" class="edge">
<title>fs_reports-&gt;text_formats</title>
<path fill="none" stroke="#9e9e9e" stroke-dasharray="5,2" d="M1179.58,-290C1241.17,-290 1294.09,-290 1294.09,-290 1294.09,-290 1294.09,-138.33 1294.09,-138.33 1294.09,-138.33 1380.17,-138.33 1380.17,-138.33"/>
<polygon fill="#9e9e9e" stroke="#9e9e9e" points="1380.17,-141.83 1390.17,-138.33 1380.17,-134.83 1380.17,-141.83"/>
<text text-anchor="middle" x="1294.09" y="-257" font-family="Arial" font-size="10.00">Exporta bitmaps como</text>
</g>
<!-- content_reports&#45;&gt;graph_formats -->
<g id="edge7" class="edge">
<title>content_reports-&gt;graph_formats</title>
<path fill="none" stroke="#9e9e9e" stroke-dasharray="5,2" d="M1205,-200.67C1205,-224.24 1205,-243.4 1205,-243.4 1205,-243.4 1365.13,-243.4 1365.13,-243.4"/>
<polygon fill="#9e9e9e" stroke="#9e9e9e" points="1365.13,-246.9 1375.13,-243.4 1365.13,-239.9 1365.13,-246.9"/>
<text text-anchor="middle" x="1294.09" y="-188" font-family="Arial" font-size="10.00">Exporta tree/ls como</text>
</g>
<!-- content_reports&#45;&gt;text_formats -->
<g id="edge8" class="edge">
<title>content_reports-&gt;text_formats</title>
<path fill="none" stroke="#9e9e9e" stroke-dasharray="5,2" d="M1211.47,-89.67C1211.47,-89.67 1380.37,-89.67 1380.37,-89.67"/>
<polygon fill="#9e9e9e" stroke="#9e9e9e" points="1380.37,-93.17 1390.37,-89.67 1380.37,-86.17 1380.37,-93.17"/>
<text text-anchor="middle" x="1294.09" y="-117" font-family="Arial" font-size="10.00">Exporta file como</text>
</g>
<!-- visualizer -->
<g id="node8" class="node">
<title>visualizer</title>
<polygon fill="#fff9c4" stroke="black" points="2190.73,-277.6 1832.45,-277.6 1832.45,-102.4 2190.73,-102.4 2190.73,-277.6"/>
<polygon fill="#ffb300" stroke="none" points="1846.85,-238.8 1846.85,-263.2 2176.33,-263.2 2176.33,-238.8 1846.85,-238.8"/>
<polygon fill="none" stroke="black" points="1846.85,-238.8 1846.85,-263.2 2176.33,-263.2 2176.33,-238.8 1846.85,-238.8"/>
<text text-anchor="start" x="1937.56" y="-248.4" font-family="Arial" font-weight="bold" font-size="12.00" fill="white">Visualización de Reportes</text>
<polygon fill="none" stroke="black" points="1846.85,-214.4 1846.85,-238.8 2176.33,-238.8 2176.33,-214.4 1846.85,-214.4"/>
<text text-anchor="start" x="1851.85" y="-223" font-family="Arial" font-size="12.00">• Los reportes gráficos se generan usando Graphviz (DOT)</text>
<polygon fill="none" stroke="black" points="1846.85,-190 1846.85,-214.4 2176.33,-214.4 2176.33,-190 1846.85,-190"/>
<text text-anchor="start" x="1857.17" y="-198.6" font-family="Arial" font-size="12.00">• Los reportes de texto se generan como archivos planos</text>
<polygon fill="none" stroke="black" points="1846.85,-165.6 1846.85,-190 2176.33,-190 2176.33,-165.6 1846.85,-165.6"/>
<text text-anchor="start" x="1888.51" y="-174.2" font-family="Arial" font-size="12.00">• Se guardan en la ruta especificada en -path</text>
<polygon fill="none" stroke="black" points="1846.85,-141.2 1846.85,-165.6 2176.33,-165.6 2176.33,-141.2 1846.85,-141.2"/>
<text text-anchor="start" x="1879.85" y="-149.8" font-family="Arial" font-size="12.00">• Formato determinado por la extensión en -path</text>
<polygon fill="none" stroke="black" points="1846.85,-116.8 1846.85,-141.2 2176.33,-141.2 2176.33,-116.8 1846.85,-116.8"/>
<text text-anchor="start" x="1854.18" y="-125.4" font-family="Arial" font-size="12.00">• Recomendación: usar .png para gráficos y .txt para texto</text>
</g>
<!-- graph_formats&#45;&gt;visualizer -->
<g id="edge9" class="edge">
<title>graph_formats-&gt;visualizer</title>
<path fill="none" stroke="#9e9e9e" stroke-dasharray="5,2" d="M1696.76,-257.1C1696.76,-257.1 1820.61,-257.1 1820.61,-257.1"/>
<polygon fill="#9e9e9e" stroke="#9e9e9e" points="1820.61,-260.6 1830.61,-257.1 1820.61,-253.6 1820.61,-260.6"/>
<text text-anchor="middle" x="1764.43" y="-290" font-family="Arial" font-size="10.00">Visualizado con</text>
</g>
<!-- text_formats&#45;&gt;visualizer -->
<g id="edge10" class="edge">
<title>text_formats-&gt;visualizer</title>
<path fill="none" stroke="#9e9e9e" stroke-dasharray="5,2" d="M1681.38,-144.7C1681.38,-144.7 1820.86,-144.7 1820.86,-144.7"/>
<polygon fill="#9e9e9e" stroke="#9e9e9e" points="1820.86,-148.2 1830.86,-144.7 1820.86,-141.2 1820.86,-148.2"/>
<text text-anchor="middle" x="1764.43" y="-152" font-family="Arial" font-size="10.00">Visualizado con</text>
</g>
<!-- reference -->
<g id="node9" class="node">
<title>reference</title>
<polygon fill="white" stroke="black" points="539.48,-832.2 160.21,-832.2 160.21,-573.8 539.48,-573.8 539.48,-832.2"/>
<polygon fill="#e0e0e0" stroke="none" points="167.41,-800.6 167.41,-825 532.28,-825 532.28,-800.6 167.41,-800.6"/>
<polygon fill="none" stroke="black" points="167.41,-800.6 167.41,-825 532.28,-825 532.28,-800.6 167.41,-800.6"/>
<text text-anchor="start" x="279.5" y="-810.2" font-family="Arial" font-weight="bold" font-size="12.00">Información de Reportes</text>
<polygon fill="none" stroke="black" points="167.41,-776.2 167.41,-800.6 233.44,-800.6 233.44,-776.2 167.41,-776.2"/>
<text text-anchor="start" x="172.41" y="-784.8" font-family="Arial" font-size="12.00">Requisitos</text>
<polygon fill="none" stroke="black" points="233.44,-776.2 233.44,-800.6 532.28,-800.6 532.28,-776.2 233.44,-776.2"/>
<text text-anchor="start" x="263.82" y="-784.8" font-family="Arial" font-size="12.00">Tener partición montada (comando MOUNT)</text>
<polygon fill="none" stroke="black" points="167.41,-751.8 167.41,-776.2 233.44,-776.2 233.44,-751.8 167.41,-751.8"/>
<text text-anchor="start" x="185.75" y="-760.4" font-family="Arial" font-size="12.00">Login</text>
<polygon fill="none" stroke="black" points="233.44,-751.8 233.44,-776.2 532.28,-776.2 532.28,-751.8 233.44,-751.8"/>
<text text-anchor="start" x="238.44" y="-760.4" font-family="Arial" font-size="12.00">No es necesario estar logueado para generar reportes</text>
<polygon fill="none" stroke="black" points="167.41,-727.4 167.41,-751.8 233.44,-751.8 233.44,-727.4 167.41,-727.4"/>
<text text-anchor="start" x="176.08" y="-736" font-family="Arial" font-size="12.00">Carpetas</text>
<polygon fill="none" stroke="black" points="233.44,-727.4 233.44,-751.8 532.28,-751.8 532.28,-727.4 233.44,-727.4"/>
<text text-anchor="start" x="250.12" y="-736" font-family="Arial" font-size="12.00">La carpeta destino debe existir en el sistema local</text>
<polygon fill="#e0e0e0" stroke="none" points="167.41,-703 167.41,-727.4 532.28,-727.4 532.28,-703 167.41,-703"/>
<polygon fill="none" stroke="black" points="167.41,-703 167.41,-727.4 532.28,-727.4 532.28,-703 167.41,-703"/>
<text text-anchor="start" x="296.83" y="-712.6" font-family="Arial" font-weight="bold" font-size="12.00">Recomendaciones</text>
<polygon fill="none" stroke="black" points="167.41,-678.6 167.41,-703 532.28,-703 532.28,-678.6 167.41,-678.6"/>
<text text-anchor="start" x="212.8" y="-687.2" font-family="Arial" font-size="12.00">• Use reportes mbr y disk para verificar particiones</text>
<polygon fill="none" stroke="black" points="167.41,-654.2 167.41,-678.6 532.28,-678.6 532.28,-654.2 167.41,-654.2"/>
<text text-anchor="start" x="201.11" y="-662.8" font-family="Arial" font-size="12.00">• Use reportes sb y bitmap para ver estado del sistema</text>
<polygon fill="none" stroke="black" points="167.41,-629.8 167.41,-654.2 532.28,-654.2 532.28,-629.8 167.41,-629.8"/>
<text text-anchor="start" x="236.13" y="-638.4" font-family="Arial" font-size="12.00">• Use tree para ver la estructura completa</text>
<polygon fill="none" stroke="black" points="167.41,-605.4 167.41,-629.8 532.28,-629.8 532.28,-605.4 167.41,-605.4"/>
<text text-anchor="start" x="207.11" y="-614" font-family="Arial" font-size="12.00">• Use file con extensión .txt para examinar contenido</text>
<polygon fill="none" stroke="black" points="167.41,-581 167.41,-605.4 532.28,-605.4 532.28,-581 167.41,-581"/>
<text text-anchor="start" x="185.44" y="-589.6" font-family="Arial" font-size="12.00">• Use bm_inode y bm_block con .txt para mejor visualización</text>
</g>
<!-- examples -->
<g id="node10" class="node">
<title>examples</title>
<polygon fill="#c8e6c9" stroke="black" points="671.7,-1220.8 28,-1220.8 28,-899.2 671.7,-899.2 671.7,-1220.8"/>
<polygon fill="#388e3c" stroke="none" points="42.4,-1182 42.4,-1206.4 657.3,-1206.4 657.3,-1182 42.4,-1182"/>
<polygon fill="none" stroke="black" points="42.4,-1182 42.4,-1206.4 657.3,-1206.4 657.3,-1182 42.4,-1182"/>
<text text-anchor="start" x="265.16" y="-1191.6" font-family="Arial" font-weight="bold" font-size="12.00" fill="white">Ejemplos de Uso de Reportes</text>
<polygon fill="#c8e6c9" stroke="none" points="42.4,-1157.6 42.4,-1182 657.3,-1182 657.3,-1157.6 42.4,-1157.6"/>
<polygon fill="none" stroke="black" points="42.4,-1157.6 42.4,-1182 657.3,-1182 657.3,-1157.6 42.4,-1157.6"/>
<text text-anchor="start" x="297.83" y="-1166.2" font-family="Arial" font-size="12.00">// Reportes gráficos</text>
<polygon fill="#c8e6c9" stroke="none" points="42.4,-1133.2 42.4,-1157.6 657.3,-1157.6 657.3,-1133.2 42.4,-1133.2"/>
<polygon fill="none" stroke="black" points="42.4,-1133.2 42.4,-1157.6 657.3,-1157.6 657.3,-1133.2 42.4,-1133.2"/>
<text text-anchor="start" x="166.22" y="-1141.8" font-family="Courier,monospace" font-size="12.00">REP -name=mbr -path=/home/reportes/mbr.jpg -id=151A</text>
<polygon fill="#c8e6c9" stroke="none" points="42.4,-1108.8 42.4,-1133.2 657.3,-1133.2 657.3,-1108.8 42.4,-1108.8"/>
<polygon fill="none" stroke="black" points="42.4,-1108.8 42.4,-1133.2 657.3,-1133.2 657.3,-1108.8 42.4,-1108.8"/>
<text text-anchor="start" x="155.42" y="-1117.4" font-family="Courier,monospace" font-size="12.00">REP -name=disk -path=/home/reportes/disco.png -id=151A</text>
<polygon fill="#c8e6c9" stroke="none" points="42.4,-1084.4 42.4,-1108.8 657.3,-1108.8 657.3,-1084.4 42.4,-1084.4"/>
<polygon fill="none" stroke="black" points="42.4,-1084.4 42.4,-1108.8 657.3,-1108.8 657.3,-1084.4 42.4,-1084.4"/>
<text text-anchor="start" x="141.02" y="-1093" font-family="Courier,monospace" font-size="12.00">REP -name=sb -path=/home/reportes/superbloque.jpg -id=151A</text>
<polygon fill="#c8e6c9" stroke="none" points="42.4,-1060 42.4,-1084.4 657.3,-1084.4 657.3,-1060 42.4,-1060"/>
<polygon fill="none" stroke="black" points="42.4,-1060 42.4,-1084.4 657.3,-1084.4 657.3,-1060 42.4,-1060"/>
<text text-anchor="start" x="148.22" y="-1068.6" font-family="Courier,monospace" font-size="12.00">REP -name=inode -path=/home/reportes/inodos.jpg -id=151A</text>
<polygon fill="#c8e6c9" stroke="none" points="42.4,-1035.6 42.4,-1060 657.3,-1060 657.3,-1035.6 42.4,-1035.6"/>
<polygon fill="none" stroke="black" points="42.4,-1035.6 42.4,-1060 657.3,-1060 657.3,-1035.6 42.4,-1035.6"/>
<text text-anchor="start" x="126.61" y="-1044.2" font-family="Courier,monospace" font-size="12.00">REP -name=tree -path=/home/reportes/arbol.jpg -id=151A -ruta=/</text>
<polygon fill="#c8e6c9" stroke="none" points="42.4,-1011.2 42.4,-1035.6 657.3,-1035.6 657.3,-1011.2 42.4,-1011.2"/>
<polygon fill="none" stroke="black" points="42.4,-1011.2 42.4,-1035.6 657.3,-1035.6 657.3,-1011.2 42.4,-1011.2"/>
<text text-anchor="start" x="101.41" y="-1019.8" font-family="Courier,monospace" font-size="12.00">REP -name=ls -path=/home/reportes/directorio.jpg -id=151A -ruta=/home</text>
<polygon fill="#c8e6c9" stroke="none" points="42.4,-986.8 42.4,-1011.2 657.3,-1011.2 657.3,-986.8 42.4,-986.8"/>
<polygon fill="none" stroke="black" points="42.4,-986.8 42.4,-1011.2 657.3,-1011.2 657.3,-986.8 42.4,-986.8"/>
<text text-anchor="start" x="297.49" y="-995.4" font-family="Arial" font-size="12.00">// Reportes de texto</text>
<polygon fill="#c8e6c9" stroke="none" points="42.4,-962.4 42.4,-986.8 657.3,-986.8 657.3,-962.4 42.4,-962.4"/>
<polygon fill="none" stroke="black" points="42.4,-962.4 42.4,-986.8 657.3,-986.8 657.3,-962.4 42.4,-962.4"/>
<text text-anchor="start" x="47.4" y="-971" font-family="Courier,monospace" font-size="12.00">REP -name=file -path=/home/reportes/archivo.txt -id=151A -ruta=/home/users/datos.txt</text>
<polygon fill="#c8e6c9" stroke="none" points="42.4,-938 42.4,-962.4 657.3,-962.4 657.3,-938 42.4,-938"/>
<polygon fill="none" stroke="black" points="42.4,-938 42.4,-962.4 657.3,-962.4 657.3,-938 42.4,-938"/>
<text text-anchor="start" x="112.21" y="-946.6" font-family="Courier,monospace" font-size="12.00">REP -name=bm_inode -path=/home/reportes/bitmap_inodos.txt -id=151A</text>
<polygon fill="#c8e6c9" stroke="none" points="42.4,-913.6 42.4,-938 657.3,-938 657.3,-913.6 42.4,-913.6"/>
<polygon fill="none" stroke="black" points="42.4,-913.6 42.4,-938 657.3,-938 657.3,-913.6 42.4,-913.6"/>
<text text-anchor="start" x="108.61" y="-922.2" font-family="Courier,monospace" font-size="12.00">REP -name=bm_block -path=/home/reportes/bitmap_bloques.txt -id=151A</text>
</g>
</g>
</svg>