<svg xmlns="http://www.w3.org/2000/svg" xmlns:xlink="http://www.w3.org/1999/xlink" width="2743pt" height="1395pt" viewBox="36.00 36.00 2707.08 1358.80">
<g id="graph0" class="graph" transform="scale(1 1) rotate(0) translate(40 1354.8)">
<title>UserCommands</title>
<polygon fill="white" stroke="none" points="-4,4 -4,-1318.8 2667.08,-1318.8 2667.08,4 -4,4"/>
<g id="clust1" class="cluster">
<title>cluster_user_commands</title>
<polygon fill="#e1f5fe" stroke="black" points="133.33,-107.8 133.33,-956.8 2655.08,-956.8 2655.08,-107.8 133.33,-107.8"/>
<text text-anchor="start" x="1240.61" y="-939.4" font-family="Arial" font-size="14.00">            </text>
<text text-anchor="start" x="1287.29" y="-939.4" font-family="Arial" font-weight="bold" font-size="16.00">Gestión de Usuarios y Grupos</text>
<text text-anchor="start" x="1516.68" y="-939.4" font-family="Arial" font-size="14.00">        </text>
</g>
<g id="clust2" class="cluster">
<title>cluster_reference</title>
<polygon fill="#fafafa" stroke="black" points="8,-956.8 8,-1306.8 649.92,-1306.8 649.92,-956.8 8,-956.8"/>
<text text-anchor="start" x="166.91" y="-1289.4" font-family="Arial" font-size="14.00">            </text>
<text text-anchor="start" x="213.59" y="-1289.4" font-family="Arial" font-weight="bold" font-size="16.00">Referencia: Gestión de Usuarios</text>
<text text-anchor="start" x="459.89" y="-1289.4" font-family="Arial" font-size="14.00">        </text>
</g>
<!-- title -->
<g id="node1" class="node">
<title>title</title>
<polygon fill="lightgrey" stroke="none" points="503.72,-77.6 154.19,-77.6 154.19,0 503.72,0 503.72,-77.6"/>
<text text-anchor="start" x="170.59" y="-44.2" font-family="Arial" font-weight="bold" font-size="20.00">Comandos de Usuarios y Grupos</text>
<text text-anchor="start" x="193.96" y="-20.6" font-family="Arial" font-size="14.00">Sistema de Administración de Discos EXT2</text>
</g>
<!-- login -->
<g id="node2" class="node">
<title>login</title>
<polygon fill="#bbdefb" stroke="black" points="500.8,-371.6 157.12,-371.6 157.12,-128 500.8,-128 500.8,-371.6"/>
<polygon fill="#1565c0" stroke="none" points="171.52,-332.8 171.52,-357.2 486.4,-357.2 486.4,-332.8 171.52,-332.8"/>
<polygon fill="none" stroke="black" points="171.52,-332.8 171.52,-357.2 486.4,-357.2 486.4,-332.8 171.52,-332.8"/>
<text text-anchor="start" x="309.96" y="-342.4" font-family="Arial" font-weight="bold" font-size="12.00" fill="white">LOGIN</text>
<polygon fill="#bbdefb" stroke="none" points="171.52,-308.4 171.52,-332.8 486.4,-332.8 486.4,-308.4 171.52,-308.4"/>
<polygon fill="none" stroke="black" points="171.52,-308.4 171.52,-332.8 486.4,-332.8 486.4,-308.4 171.52,-308.4"/>
<text text-anchor="start" x="196.88" y="-318" font-family="Arial" font-style="italic" font-size="12.00">Inicia sesión de usuario en una partición montada</text>
<polygon fill="#e1f5fe" stroke="none" points="171.52,-284 171.52,-308.4 260.03,-308.4 260.03,-284 171.52,-284"/>
<polygon fill="none" stroke="black" points="171.52,-284 171.52,-308.4 260.03,-308.4 260.03,-284 171.52,-284"/>
<text text-anchor="start" x="186.1" y="-293.6" font-family="Arial" font-weight="bold" font-size="12.00">Parámetro</text>
<polygon fill="#e1f5fe" stroke="none" points="260.03,-284 260.03,-308.4 332.85,-308.4 332.85,-284 260.03,-284"/>
<polygon fill="none" stroke="black" points="260.03,-284 260.03,-308.4 332.85,-308.4 332.85,-284 260.03,-284"/>
<text text-anchor="start" x="266.77" y="-293.6" font-family="Arial" font-weight="bold" font-size="12.00">Requerido</text>
<polygon fill="#e1f5fe" stroke="none" points="332.85,-284 332.85,-308.4 486.4,-308.4 486.4,-284 332.85,-284"/>
<polygon fill="none" stroke="black" points="332.85,-284 332.85,-308.4 486.4,-308.4 486.4,-284 332.85,-284"/>
<text text-anchor="start" x="375.61" y="-293.6" font-family="Arial" font-weight="bold" font-size="12.00">Descripción</text>
<polygon fill="none" stroke="black" points="171.52,-259.6 171.52,-284 260.03,-284 260.03,-259.6 171.52,-259.6"/>
<text text-anchor="start" x="178.26" y="-268.2" font-family="Arial" font-size="12.00">-user=nombre</text>
<polygon fill="none" stroke="black" points="260.03,-259.6 260.03,-284 332.85,-284 332.85,-259.6 260.03,-259.6"/>
<text text-anchor="start" x="289.1" y="-268.2" font-family="Arial" font-size="12.00">Sí</text>
<polygon fill="none" stroke="black" points="332.85,-259.6 332.85,-284 486.4,-284 486.4,-259.6 332.85,-259.6"/>
<text text-anchor="start" x="358.6" y="-268.2" font-family="Arial" font-size="12.00">Nombre de usuario</text>
<polygon fill="none" stroke="black" points="171.52,-235.2 171.52,-259.6 260.03,-259.6 260.03,-235.2 171.52,-235.2"/>
<text text-anchor="start" x="183.59" y="-243.8" font-family="Arial" font-size="12.00">-pass=clave</text>
<polygon fill="none" stroke="black" points="260.03,-235.2 260.03,-259.6 332.85,-259.6 332.85,-235.2 260.03,-235.2"/>
<text text-anchor="start" x="289.1" y="-243.8" font-family="Arial" font-size="12.00">Sí</text>
<polygon fill="none" stroke="black" points="332.85,-235.2 332.85,-259.6 486.4,-259.6 486.4,-235.2 332.85,-235.2"/>
<text text-anchor="start" x="347.59" y="-243.8" font-family="Arial" font-size="12.00">Contraseña del usuario</text>
<polygon fill="none" stroke="black" points="171.52,-210.8 171.52,-235.2 260.03,-235.2 260.03,-210.8 171.52,-210.8"/>
<text text-anchor="start" x="191.59" y="-219.4" font-family="Arial" font-size="12.00">-id=151A</text>
<polygon fill="none" stroke="black" points="260.03,-210.8 260.03,-235.2 332.85,-235.2 332.85,-210.8 260.03,-210.8"/>
<text text-anchor="start" x="289.1" y="-219.4" font-family="Arial" font-size="12.00">Sí</text>
<polygon fill="none" stroke="black" points="332.85,-210.8 332.85,-235.2 486.4,-235.2 486.4,-210.8 332.85,-210.8"/>
<text text-anchor="start" x="339.59" y="-219.4" font-family="Arial" font-size="12.00">ID de la partición montada</text>
<polygon fill="none" stroke="black" points="171.52,-188.8 171.52,-210.8 486.4,-210.8 486.4,-188.8 171.52,-188.8"/>
<text text-anchor="start" x="176.52" y="-196.8" font-family="Arial" font-size="10.00" fill="gray">El usuario root (pass=123) está disponible por defecto tras formatear</text>
<polygon fill="#e1f5fe" stroke="none" points="171.52,-166.8 171.52,-188.8 486.4,-188.8 486.4,-166.8 171.52,-166.8"/>
<polygon fill="none" stroke="black" points="171.52,-166.8 171.52,-188.8 486.4,-188.8 486.4,-166.8 171.52,-166.8"/>
<text text-anchor="start" x="307.85" y="-175.8" font-family="Arial" font-weight="bold" font-size="10.00">Ejemplo:</text>
<polygon fill="none" stroke="black" points="171.52,-142.4 171.52,-166.8 486.4,-166.8 486.4,-142.4 171.52,-142.4"/>
<text text-anchor="start" x="202.94" y="-151" font-family="Courier,monospace" font-size="12.00">LOGIN -user=root -pass=123 -id=151A</text>
</g>
<!-- logout -->
<g id="node3" class="node">
<title>logout</title>
<polygon fill="#b3e5fc" stroke="black" points="451.72,-642 206.2,-642 206.2,-471.6 451.72,-471.6 451.72,-642"/>
<polygon fill="#0277bd" stroke="none" points="220.6,-603.2 220.6,-627.6 437.32,-627.6 437.32,-603.2 220.6,-603.2"/>
<polygon fill="none" stroke="black" points="220.6,-603.2 220.6,-627.6 437.32,-627.6 437.32,-603.2 220.6,-603.2"/>
<text text-anchor="start" x="303.29" y="-612.8" font-family="Arial" font-weight="bold" font-size="12.00" fill="white">LOGOUT</text>
<polygon fill="#b3e5fc" stroke="none" points="220.6,-578.8 220.6,-603.2 437.32,-603.2 437.32,-578.8 220.6,-578.8"/>
<polygon fill="none" stroke="black" points="220.6,-578.8 220.6,-603.2 437.32,-603.2 437.32,-578.8 220.6,-578.8"/>
<text text-anchor="start" x="239.91" y="-588.4" font-family="Arial" font-style="italic" font-size="12.00">Cierra la sesión de usuario actual</text>
<polygon fill="#e1f5fe" stroke="none" points="220.6,-554.4 220.6,-578.8 289.95,-578.8 289.95,-554.4 220.6,-554.4"/>
<polygon fill="none" stroke="black" points="220.6,-554.4 220.6,-578.8 289.95,-578.8 289.95,-554.4 220.6,-554.4"/>
<text text-anchor="start" x="225.6" y="-564" font-family="Arial" font-weight="bold" font-size="12.00">Parámetro</text>
<polygon fill="#e1f5fe" stroke="none" points="289.95,-554.4 289.95,-578.8 359.29,-578.8 359.29,-554.4 289.95,-554.4"/>
<polygon fill="none" stroke="black" points="289.95,-554.4 289.95,-578.8 359.29,-578.8 359.29,-554.4 289.95,-554.4"/>
<text text-anchor="start" x="294.95" y="-564" font-family="Arial" font-weight="bold" font-size="12.00">Requerido</text>
<polygon fill="#e1f5fe" stroke="none" points="359.29,-554.4 359.29,-578.8 437.32,-578.8 437.32,-554.4 359.29,-554.4"/>
<polygon fill="none" stroke="black" points="359.29,-554.4 359.29,-578.8 437.32,-578.8 437.32,-554.4 359.29,-554.4"/>
<text text-anchor="start" x="364.29" y="-564" font-family="Arial" font-weight="bold" font-size="12.00">Descripción</text>
<polygon fill="none" stroke="black" points="220.6,-532.4 220.6,-554.4 437.32,-554.4 437.32,-532.4 220.6,-532.4"/>
<text text-anchor="start" x="243.64" y="-540.4" font-family="Arial" font-size="10.00" fill="gray">Este comando no requiere parámetros</text>
<polygon fill="#e1f5fe" stroke="none" points="220.6,-510.4 220.6,-532.4 437.32,-532.4 437.32,-510.4 220.6,-510.4"/>
<polygon fill="none" stroke="black" points="220.6,-510.4 220.6,-532.4 437.32,-532.4 437.32,-510.4 220.6,-510.4"/>
<text text-anchor="start" x="307.85" y="-519.4" font-family="Arial" font-weight="bold" font-size="10.00">Ejemplo:</text>
<polygon fill="none" stroke="black" points="220.6,-486 220.6,-510.4 437.32,-510.4 437.32,-486 220.6,-486"/>
<text text-anchor="start" x="307.36" y="-494.6" font-family="Courier,monospace" font-size="12.00">LOGOUT</text>
</g>
<!-- login&#45;&gt;logout -->
<g id="edge5" class="edge">
<title>login-&gt;logout</title>
<path fill="none" stroke="#9e9e9e" stroke-dasharray="5,2" d="M328.96,-372.02C328.96,-372.02 328.96,-459.85 328.96,-459.85"/>
<polygon fill="#9e9e9e" stroke="#9e9e9e" points="325.46,-459.85 328.96,-469.85 332.46,-459.85 325.46,-459.85"/>
</g>
<!-- mkgrp -->
<g id="node4" class="node">
<title>mkgrp</title>
<polygon fill="#d1c4e9" stroke="black" points="1115.33,-353.2 778.74,-353.2 778.74,-158.4 1115.33,-158.4 1115.33,-353.2"/>
<polygon fill="#512da8" stroke="none" points="793.14,-314.4 793.14,-338.8 1100.93,-338.8 1100.93,-314.4 793.14,-314.4"/>
<polygon fill="none" stroke="black" points="793.14,-314.4 793.14,-338.8 1100.93,-338.8 1100.93,-314.4 793.14,-314.4"/>
<text text-anchor="start" x="924.7" y="-324" font-family="Arial" font-weight="bold" font-size="12.00" fill="white">MKGRP</text>
<polygon fill="#d1c4e9" stroke="none" points="793.14,-290 793.14,-314.4 1100.93,-314.4 1100.93,-290 793.14,-290"/>
<polygon fill="none" stroke="black" points="793.14,-290 793.14,-314.4 1100.93,-314.4 1100.93,-290 793.14,-290"/>
<text text-anchor="start" x="857.98" y="-299.6" font-family="Arial" font-style="italic" font-size="12.00">Crea un nuevo grupo de usuarios</text>
<polygon fill="#ede7f6" stroke="none" points="793.14,-265.6 793.14,-290 884.85,-290 884.85,-265.6 793.14,-265.6"/>
<polygon fill="none" stroke="black" points="793.14,-265.6 793.14,-290 884.85,-290 884.85,-265.6 793.14,-265.6"/>
<text text-anchor="start" x="809.32" y="-275.2" font-family="Arial" font-weight="bold" font-size="12.00">Parámetro</text>
<polygon fill="#ede7f6" stroke="none" points="884.85,-265.6 884.85,-290 954.19,-290 954.19,-265.6 884.85,-265.6"/>
<polygon fill="none" stroke="black" points="884.85,-265.6 884.85,-290 954.19,-290 954.19,-265.6 884.85,-265.6"/>
<text text-anchor="start" x="889.85" y="-275.2" font-family="Arial" font-weight="bold" font-size="12.00">Requerido</text>
<polygon fill="#ede7f6" stroke="none" points="954.19,-265.6 954.19,-290 1100.93,-290 1100.93,-265.6 954.19,-265.6"/>
<polygon fill="none" stroke="black" points="954.19,-265.6 954.19,-290 1100.93,-290 1100.93,-265.6 954.19,-265.6"/>
<text text-anchor="start" x="993.55" y="-275.2" font-family="Arial" font-weight="bold" font-size="12.00">Descripción</text>
<polygon fill="none" stroke="black" points="793.14,-241.2 793.14,-265.6 884.85,-265.6 884.85,-241.2 793.14,-241.2"/>
<text text-anchor="start" x="798.14" y="-249.8" font-family="Arial" font-size="12.00">-name=nombre</text>
<polygon fill="none" stroke="black" points="884.85,-241.2 884.85,-265.6 954.19,-265.6 954.19,-241.2 884.85,-241.2"/>
<text text-anchor="start" x="912.19" y="-249.8" font-family="Arial" font-size="12.00">Sí</text>
<polygon fill="none" stroke="black" points="954.19,-241.2 954.19,-265.6 1100.93,-265.6 1100.93,-241.2 954.19,-241.2"/>
<text text-anchor="start" x="959.19" y="-249.8" font-family="Arial" font-size="12.00">Nombre del grupo a crear</text>
<polygon fill="none" stroke="black" points="793.14,-219.2 793.14,-241.2 1100.93,-241.2 1100.93,-219.2 793.14,-219.2"/>
<text text-anchor="start" x="836.97" y="-227.2" font-family="Arial" font-size="10.00" fill="gray">Requiere haber iniciado sesión como usuario root</text>
<polygon fill="#ede7f6" stroke="none" points="793.14,-197.2 793.14,-219.2 1100.93,-219.2 1100.93,-197.2 793.14,-197.2"/>
<polygon fill="none" stroke="black" points="793.14,-197.2 793.14,-219.2 1100.93,-219.2 1100.93,-197.2 793.14,-197.2"/>
<text text-anchor="start" x="925.92" y="-206.2" font-family="Arial" font-weight="bold" font-size="10.00">Ejemplo:</text>
<polygon fill="none" stroke="black" points="793.14,-172.8 793.14,-197.2 1100.93,-197.2 1100.93,-172.8 793.14,-172.8"/>
<text text-anchor="start" x="849.82" y="-181.4" font-family="Courier,monospace" font-size="12.00">MKGRP -name=administradores</text>
</g>
<!-- login&#45;&gt;mkgrp -->
<g id="edge1" class="edge">
<title>login-&gt;mkgrp</title>
<path fill="none" stroke="#9e9e9e" stroke-dasharray="5,2" d="M501.13,-255.8C501.13,-255.8 766.95,-255.8 766.95,-255.8"/>
<polygon fill="#9e9e9e" stroke="#9e9e9e" points="766.95,-259.3 776.95,-255.8 766.95,-252.3 766.95,-259.3"/>
<text text-anchor="middle" x="704.33" y="-253.8" font-family="Arial" font-size="10.00">1. Login como root</text>
</g>
<!-- mkusr -->
<g id="node6" class="node">
<title>mkusr</title>
<polygon fill="#d1c4e9" stroke="black" points="1630.26,-393.6 1245.8,-393.6 1245.8,-128 1630.26,-128 1630.26,-393.6"/>
<polygon fill="#5e35b1" stroke="none" points="1260.2,-354.8 1260.2,-379.2 1615.86,-379.2 1615.86,-354.8 1260.2,-354.8"/>
<polygon fill="none" stroke="black" points="1260.2,-354.8 1260.2,-379.2 1615.86,-379.2 1615.86,-354.8 1260.2,-354.8"/>
<text text-anchor="start" x="1416.03" y="-364.4" font-family="Arial" font-weight="bold" font-size="12.00" fill="white">MKUSR</text>
<polygon fill="#d1c4e9" stroke="none" points="1260.2,-330.4 1260.2,-354.8 1615.86,-354.8 1615.86,-330.4 1260.2,-330.4"/>
<polygon fill="none" stroke="black" points="1260.2,-330.4 1260.2,-354.8 1615.86,-354.8 1615.86,-330.4 1260.2,-330.4"/>
<text text-anchor="start" x="1340.31" y="-340" font-family="Arial" font-style="italic" font-size="12.00">Crea un nuevo usuario en el sistema</text>
<polygon fill="#ede7f6" stroke="none" points="1260.2,-306 1260.2,-330.4 1363.42,-330.4 1363.42,-306 1260.2,-306"/>
<polygon fill="none" stroke="black" points="1260.2,-306 1260.2,-330.4 1363.42,-330.4 1363.42,-306 1260.2,-306"/>
<text text-anchor="start" x="1282.13" y="-315.6" font-family="Arial" font-weight="bold" font-size="12.00">Parámetro</text>
<polygon fill="#ede7f6" stroke="none" points="1363.42,-306 1363.42,-330.4 1450.93,-330.4 1450.93,-306 1363.42,-306"/>
<polygon fill="none" stroke="black" points="1363.42,-306 1363.42,-330.4 1450.93,-330.4 1450.93,-306 1363.42,-306"/>
<text text-anchor="start" x="1377.5" y="-315.6" font-family="Arial" font-weight="bold" font-size="12.00">Requerido</text>
<polygon fill="#ede7f6" stroke="none" points="1450.93,-306 1450.93,-330.4 1615.86,-330.4 1615.86,-306 1450.93,-306"/>
<polygon fill="none" stroke="black" points="1450.93,-306 1450.93,-330.4 1615.86,-330.4 1615.86,-306 1450.93,-306"/>
<text text-anchor="start" x="1499.38" y="-315.6" font-family="Arial" font-weight="bold" font-size="12.00">Descripción</text>
<polygon fill="none" stroke="black" points="1260.2,-281.6 1260.2,-306 1363.42,-306 1363.42,-281.6 1260.2,-281.6"/>
<text text-anchor="start" x="1274.29" y="-290.2" font-family="Arial" font-size="12.00">-user=nombre</text>
<polygon fill="none" stroke="black" points="1363.42,-281.6 1363.42,-306 1450.93,-306 1450.93,-281.6 1363.42,-281.6"/>
<text text-anchor="start" x="1399.84" y="-290.2" font-family="Arial" font-size="12.00">Sí</text>
<polygon fill="none" stroke="black" points="1450.93,-281.6 1450.93,-306 1615.86,-306 1615.86,-281.6 1450.93,-281.6"/>
<text text-anchor="start" x="1481.04" y="-290.2" font-family="Arial" font-size="12.00">Nombre del usuario</text>
<polygon fill="none" stroke="black" points="1260.2,-257.2 1260.2,-281.6 1363.42,-281.6 1363.42,-257.2 1260.2,-257.2"/>
<text text-anchor="start" x="1279.63" y="-265.8" font-family="Arial" font-size="12.00">-pass=clave</text>
<polygon fill="none" stroke="black" points="1363.42,-257.2 1363.42,-281.6 1450.93,-281.6 1450.93,-257.2 1363.42,-257.2"/>
<text text-anchor="start" x="1399.84" y="-265.8" font-family="Arial" font-size="12.00">Sí</text>
<polygon fill="none" stroke="black" points="1450.93,-257.2 1450.93,-281.6 1615.86,-281.6 1615.86,-257.2 1450.93,-257.2"/>
<text text-anchor="start" x="1471.36" y="-265.8" font-family="Arial" font-size="12.00">Contraseña del usuario</text>
<polygon fill="none" stroke="black" points="1260.2,-232.8 1260.2,-257.2 1363.42,-257.2 1363.42,-232.8 1260.2,-232.8"/>
<text text-anchor="start" x="1282.29" y="-241.4" font-family="Arial" font-size="12.00">-grp=grupo</text>
<polygon fill="none" stroke="black" points="1363.42,-232.8 1363.42,-257.2 1450.93,-257.2 1450.93,-232.8 1363.42,-232.8"/>
<text text-anchor="start" x="1399.84" y="-241.4" font-family="Arial" font-size="12.00">Sí</text>
<polygon fill="none" stroke="black" points="1450.93,-232.8 1450.93,-257.2 1615.86,-257.2 1615.86,-232.8 1450.93,-232.8"/>
<text text-anchor="start" x="1465.02" y="-241.4" font-family="Arial" font-size="12.00">Grupo al que pertenecerá</text>
<polygon fill="none" stroke="black" points="1260.2,-210.8 1260.2,-232.8 1615.86,-232.8 1615.86,-210.8 1260.2,-210.8"/>
<text text-anchor="start" x="1345.76" y="-218.8" font-family="Arial" font-size="10.00" fill="gray">Requiere haber iniciado sesión como root</text>
<polygon fill="none" stroke="black" points="1260.2,-188.8 1260.2,-210.8 1615.86,-210.8 1615.86,-188.8 1260.2,-188.8"/>
<text text-anchor="start" x="1363.55" y="-196.8" font-family="Arial" font-size="10.00" fill="gray">El grupo debe existir previamente</text>
<polygon fill="#ede7f6" stroke="none" points="1260.2,-166.8 1260.2,-188.8 1615.86,-188.8 1615.86,-166.8 1260.2,-166.8"/>
<polygon fill="none" stroke="black" points="1260.2,-166.8 1260.2,-188.8 1615.86,-188.8 1615.86,-166.8 1260.2,-166.8"/>
<text text-anchor="start" x="1416.92" y="-175.8" font-family="Arial" font-weight="bold" font-size="10.00">Ejemplo:</text>
<polygon fill="none" stroke="black" points="1260.2,-142.4 1260.2,-166.8 1615.86,-166.8 1615.86,-142.4 1260.2,-142.4"/>
<text text-anchor="start" x="1265.2" y="-151" font-family="Courier,monospace" font-size="12.00">MKUSR -user=juan -pass=1234 -grp=administradores</text>
</g>
<!-- mkgrp&#45;&gt;mkusr -->
<g id="edge2" class="edge">
<title>mkgrp-&gt;mkusr</title>
<path fill="none" stroke="#9e9e9e" stroke-dasharray="5,2" d="M1115.66,-255.8C1115.66,-255.8 1233.8,-255.8 1233.8,-255.8"/>
<polygon fill="#9e9e9e" stroke="#9e9e9e" points="1233.8,-259.3 1243.8,-255.8 1233.8,-252.3 1233.8,-259.3"/>
<text text-anchor="middle" x="1180.56" y="-261.8" font-family="Arial" font-size="10.00">2. Crear grupo</text>
</g>
<!-- rmgrp -->
<g id="node5" class="node">
<title>rmgrp</title>
<polygon fill="#e1bee7" stroke="black" points="504.59,-909.2 153.33,-909.2 153.33,-692.4 504.59,-692.4 504.59,-909.2"/>
<polygon fill="#7b1fa2" stroke="none" points="167.73,-870.4 167.73,-894.8 490.19,-894.8 490.19,-870.4 167.73,-870.4"/>
<polygon fill="none" stroke="black" points="167.73,-870.4 167.73,-894.8 490.19,-894.8 490.19,-870.4 167.73,-870.4"/>
<text text-anchor="start" x="306.63" y="-880" font-family="Arial" font-weight="bold" font-size="12.00" fill="white">RMGRP</text>
<polygon fill="#e1bee7" stroke="none" points="167.73,-846 167.73,-870.4 490.19,-870.4 490.19,-846 167.73,-846"/>
<polygon fill="none" stroke="black" points="167.73,-846 167.73,-870.4 490.19,-870.4 490.19,-846 167.73,-846"/>
<text text-anchor="start" x="251.25" y="-855.6" font-family="Arial" font-style="italic" font-size="12.00">Elimina un grupo de usuarios</text>
<polygon fill="#f3e5f5" stroke="none" points="167.73,-821.6 167.73,-846 259.44,-846 259.44,-821.6 167.73,-821.6"/>
<polygon fill="none" stroke="black" points="167.73,-821.6 167.73,-846 259.44,-846 259.44,-821.6 167.73,-821.6"/>
<text text-anchor="start" x="183.91" y="-831.2" font-family="Arial" font-weight="bold" font-size="12.00">Parámetro</text>
<polygon fill="#f3e5f5" stroke="none" points="259.44,-821.6 259.44,-846 328.78,-846 328.78,-821.6 259.44,-821.6"/>
<polygon fill="none" stroke="black" points="259.44,-821.6 259.44,-846 328.78,-846 328.78,-821.6 259.44,-821.6"/>
<text text-anchor="start" x="264.44" y="-831.2" font-family="Arial" font-weight="bold" font-size="12.00">Requerido</text>
<polygon fill="#f3e5f5" stroke="none" points="328.78,-821.6 328.78,-846 490.19,-846 490.19,-821.6 328.78,-821.6"/>
<polygon fill="none" stroke="black" points="328.78,-821.6 328.78,-846 490.19,-846 490.19,-821.6 328.78,-821.6"/>
<text text-anchor="start" x="375.47" y="-831.2" font-family="Arial" font-weight="bold" font-size="12.00">Descripción</text>
<polygon fill="none" stroke="black" points="167.73,-797.2 167.73,-821.6 259.44,-821.6 259.44,-797.2 167.73,-797.2"/>
<text text-anchor="start" x="172.73" y="-805.8" font-family="Arial" font-size="12.00">-name=nombre</text>
<polygon fill="none" stroke="black" points="259.44,-797.2 259.44,-821.6 328.78,-821.6 328.78,-797.2 259.44,-797.2"/>
<text text-anchor="start" x="286.77" y="-805.8" font-family="Arial" font-size="12.00">Sí</text>
<polygon fill="none" stroke="black" points="328.78,-797.2 328.78,-821.6 490.19,-821.6 490.19,-797.2 328.78,-797.2"/>
<text text-anchor="start" x="333.78" y="-805.8" font-family="Arial" font-size="12.00">Nombre del grupo a eliminar</text>
<polygon fill="none" stroke="black" points="167.73,-775.2 167.73,-797.2 490.19,-797.2 490.19,-775.2 167.73,-775.2"/>
<text text-anchor="start" x="218.9" y="-783.2" font-family="Arial" font-size="10.00" fill="gray">Requiere haber iniciado sesión como usuario root</text>
<polygon fill="none" stroke="black" points="167.73,-753.2 167.73,-775.2 490.19,-775.2 490.19,-753.2 167.73,-753.2"/>
<text text-anchor="start" x="208.33" y="-761.2" font-family="Arial" font-size="10.00" fill="gray">No se pueden eliminar grupos con usuarios asignados</text>
<polygon fill="#f3e5f5" stroke="none" points="167.73,-731.2 167.73,-753.2 490.19,-753.2 490.19,-731.2 167.73,-731.2"/>
<polygon fill="none" stroke="black" points="167.73,-731.2 167.73,-753.2 490.19,-753.2 490.19,-731.2 167.73,-731.2"/>
<text text-anchor="start" x="307.85" y="-740.2" font-family="Arial" font-weight="bold" font-size="10.00">Ejemplo:</text>
<polygon fill="none" stroke="black" points="167.73,-706.8 167.73,-731.2 490.19,-731.2 490.19,-706.8 167.73,-706.8"/>
<text text-anchor="start" x="231.74" y="-715.4" font-family="Courier,monospace" font-size="12.00">RMGRP -name=administradores</text>
</g>
<!-- chgrp -->
<g id="node8" class="node">
<title>chgrp</title>
<polygon fill="#e1bee7" stroke="black" points="2091.88,-381.4 1767.96,-381.4 1767.96,-140.2 2091.88,-140.2 2091.88,-381.4"/>
<polygon fill="#6a1b9a" stroke="none" points="1782.36,-342.6 1782.36,-367 2077.48,-367 2077.48,-342.6 1782.36,-342.6"/>
<polygon fill="none" stroke="black" points="1782.36,-342.6 1782.36,-367 2077.48,-367 2077.48,-342.6 1782.36,-342.6"/>
<text text-anchor="start" x="1908.25" y="-352.2" font-family="Arial" font-weight="bold" font-size="12.00" fill="white">CHGRP</text>
<polygon fill="#e1bee7" stroke="none" points="1782.36,-318.2 1782.36,-342.6 2077.48,-342.6 2077.48,-318.2 1782.36,-318.2"/>
<polygon fill="none" stroke="black" points="1782.36,-318.2 1782.36,-342.6 2077.48,-342.6 2077.48,-318.2 1782.36,-318.2"/>
<text text-anchor="start" x="1823.86" y="-327.8" font-family="Arial" font-style="italic" font-size="12.00">Cambia el grupo principal de un usuario</text>
<polygon fill="#f3e5f5" stroke="none" points="1782.36,-293.8 1782.36,-318.2 1867.39,-318.2 1867.39,-293.8 1782.36,-293.8"/>
<polygon fill="none" stroke="black" points="1782.36,-293.8 1782.36,-318.2 1867.39,-318.2 1867.39,-293.8 1782.36,-293.8"/>
<text text-anchor="start" x="1795.2" y="-303.4" font-family="Arial" font-weight="bold" font-size="12.00">Parámetro</text>
<polygon fill="#f3e5f5" stroke="none" points="1867.39,-293.8 1867.39,-318.2 1936.73,-318.2 1936.73,-293.8 1867.39,-293.8"/>
<polygon fill="none" stroke="black" points="1867.39,-293.8 1867.39,-318.2 1936.73,-318.2 1936.73,-293.8 1867.39,-293.8"/>
<text text-anchor="start" x="1872.39" y="-303.4" font-family="Arial" font-weight="bold" font-size="12.00">Requerido</text>
<polygon fill="#f3e5f5" stroke="none" points="1936.73,-293.8 1936.73,-318.2 2077.48,-318.2 2077.48,-293.8 1936.73,-293.8"/>
<polygon fill="none" stroke="black" points="1936.73,-293.8 1936.73,-318.2 2077.48,-318.2 2077.48,-293.8 1936.73,-293.8"/>
<text text-anchor="start" x="1973.09" y="-303.4" font-family="Arial" font-weight="bold" font-size="12.00">Descripción</text>
<polygon fill="none" stroke="black" points="1782.36,-269.4 1782.36,-293.8 1867.39,-293.8 1867.39,-269.4 1782.36,-269.4"/>
<text text-anchor="start" x="1787.36" y="-278" font-family="Arial" font-size="12.00">-user=nombre</text>
<polygon fill="none" stroke="black" points="1867.39,-269.4 1867.39,-293.8 1936.73,-293.8 1936.73,-269.4 1867.39,-269.4"/>
<text text-anchor="start" x="1894.73" y="-278" font-family="Arial" font-size="12.00">Sí</text>
<polygon fill="none" stroke="black" points="1936.73,-269.4 1936.73,-293.8 2077.48,-293.8 2077.48,-269.4 1936.73,-269.4"/>
<text text-anchor="start" x="1954.75" y="-278" font-family="Arial" font-size="12.00">Nombre del usuario</text>
<polygon fill="none" stroke="black" points="1782.36,-245 1782.36,-269.4 1867.39,-269.4 1867.39,-245 1782.36,-245"/>
<text text-anchor="start" x="1795.36" y="-253.6" font-family="Arial" font-size="12.00">-grp=grupo</text>
<polygon fill="none" stroke="black" points="1867.39,-245 1867.39,-269.4 1936.73,-269.4 1936.73,-245 1867.39,-245"/>
<text text-anchor="start" x="1894.73" y="-253.6" font-family="Arial" font-size="12.00">Sí</text>
<polygon fill="none" stroke="black" points="1936.73,-245 1936.73,-269.4 2077.48,-269.4 2077.48,-245 1936.73,-245"/>
<text text-anchor="start" x="1941.73" y="-253.6" font-family="Arial" font-size="12.00">Nuevo grupo del usuario</text>
<polygon fill="none" stroke="black" points="1782.36,-223 1782.36,-245 2077.48,-245 2077.48,-223 1782.36,-223"/>
<text text-anchor="start" x="1837.65" y="-231" font-family="Arial" font-size="10.00" fill="gray">Requiere haber iniciado sesión como root</text>
<polygon fill="none" stroke="black" points="1782.36,-201 1782.36,-223 2077.48,-223 2077.48,-201 1782.36,-201"/>
<text text-anchor="start" x="1854.6" y="-209" font-family="Arial" font-size="10.00" fill="gray">El usuario y el grupo deben existir</text>
<polygon fill="#f3e5f5" stroke="none" points="1782.36,-179 1782.36,-201 2077.48,-201 2077.48,-179 1782.36,-179"/>
<polygon fill="none" stroke="black" points="1782.36,-179 1782.36,-201 2077.48,-201 2077.48,-179 1782.36,-179"/>
<text text-anchor="start" x="1908.81" y="-188" font-family="Arial" font-weight="bold" font-size="10.00">Ejemplo:</text>
<polygon fill="none" stroke="black" points="1782.36,-154.6 1782.36,-179 2077.48,-179 2077.48,-154.6 1782.36,-154.6"/>
<text text-anchor="start" x="1821.9" y="-163.2" font-family="Courier,monospace" font-size="12.00">CHGRP -user=juan -grp=usuarios</text>
</g>
<!-- mkusr&#45;&gt;chgrp -->
<g id="edge3" class="edge">
<title>mkusr-&gt;chgrp</title>
<path fill="none" stroke="#9e9e9e" stroke-dasharray="5,2" d="M1630.68,-260.8C1630.68,-260.8 1756.33,-260.8 1756.33,-260.8"/>
<polygon fill="#9e9e9e" stroke="#9e9e9e" points="1756.33,-264.3 1766.33,-260.8 1756.33,-257.3 1756.33,-264.3"/>
<text text-anchor="middle" x="1699.11" y="-263.8" font-family="Arial" font-size="10.00">3. Crear usuario</text>
</g>
<!-- rmusr -->
<g id="node7" class="node">
<title>rmusr</title>
<polygon fill="#e1bee7" stroke="black" points="2635.08,-369.2 2281.83,-369.2 2281.83,-152.4 2635.08,-152.4 2635.08,-369.2"/>
<polygon fill="#8e24aa" stroke="none" points="2296.23,-330.4 2296.23,-354.8 2620.68,-354.8 2620.68,-330.4 2296.23,-330.4"/>
<polygon fill="none" stroke="black" points="2296.23,-330.4 2296.23,-354.8 2620.68,-354.8 2620.68,-330.4 2296.23,-330.4"/>
<text text-anchor="start" x="2436.46" y="-340" font-family="Arial" font-weight="bold" font-size="12.00" fill="white">RMUSR</text>
<polygon fill="#e1bee7" stroke="none" points="2296.23,-306 2296.23,-330.4 2620.68,-330.4 2620.68,-306 2296.23,-306"/>
<polygon fill="none" stroke="black" points="2296.23,-306 2296.23,-330.4 2620.68,-330.4 2620.68,-306 2296.23,-306"/>
<text text-anchor="start" x="2377.08" y="-315.6" font-family="Arial" font-style="italic" font-size="12.00">Elimina un usuario del sistema</text>
<polygon fill="#f3e5f5" stroke="none" points="2296.23,-281.6 2296.23,-306 2381.27,-306 2381.27,-281.6 2296.23,-281.6"/>
<polygon fill="none" stroke="black" points="2296.23,-281.6 2296.23,-306 2381.27,-306 2381.27,-281.6 2296.23,-281.6"/>
<text text-anchor="start" x="2309.07" y="-291.2" font-family="Arial" font-weight="bold" font-size="12.00">Parámetro</text>
<polygon fill="#f3e5f5" stroke="none" points="2381.27,-281.6 2381.27,-306 2450.61,-306 2450.61,-281.6 2381.27,-281.6"/>
<polygon fill="none" stroke="black" points="2381.27,-281.6 2381.27,-306 2450.61,-306 2450.61,-281.6 2381.27,-281.6"/>
<text text-anchor="start" x="2386.27" y="-291.2" font-family="Arial" font-weight="bold" font-size="12.00">Requerido</text>
<polygon fill="#f3e5f5" stroke="none" points="2450.61,-281.6 2450.61,-306 2620.68,-306 2620.68,-281.6 2450.61,-281.6"/>
<polygon fill="none" stroke="black" points="2450.61,-281.6 2450.61,-306 2620.68,-306 2620.68,-281.6 2450.61,-281.6"/>
<text text-anchor="start" x="2501.63" y="-291.2" font-family="Arial" font-weight="bold" font-size="12.00">Descripción</text>
<polygon fill="none" stroke="black" points="2296.23,-257.2 2296.23,-281.6 2381.27,-281.6 2381.27,-257.2 2296.23,-257.2"/>
<text text-anchor="start" x="2301.23" y="-265.8" font-family="Arial" font-size="12.00">-user=nombre</text>
<polygon fill="none" stroke="black" points="2381.27,-257.2 2381.27,-281.6 2450.61,-281.6 2450.61,-257.2 2381.27,-257.2"/>
<text text-anchor="start" x="2408.6" y="-265.8" font-family="Arial" font-size="12.00">Sí</text>
<polygon fill="none" stroke="black" points="2450.61,-257.2 2450.61,-281.6 2620.68,-281.6 2620.68,-257.2 2450.61,-257.2"/>
<text text-anchor="start" x="2455.61" y="-265.8" font-family="Arial" font-size="12.00">Nombre del usuario a eliminar</text>
<polygon fill="none" stroke="black" points="2296.23,-235.2 2296.23,-257.2 2620.68,-257.2 2620.68,-235.2 2296.23,-235.2"/>
<text text-anchor="start" x="2366.18" y="-243.2" font-family="Arial" font-size="10.00" fill="gray">Requiere haber iniciado sesión como root</text>
<polygon fill="none" stroke="black" points="2296.23,-213.2 2296.23,-235.2 2620.68,-235.2 2620.68,-213.2 2296.23,-213.2"/>
<text text-anchor="start" x="2378.13" y="-221.2" font-family="Arial" font-size="10.00" fill="gray">No se puede eliminar el usuario root</text>
<polygon fill="#f3e5f5" stroke="none" points="2296.23,-191.2 2296.23,-213.2 2620.68,-213.2 2620.68,-191.2 2296.23,-191.2"/>
<polygon fill="none" stroke="black" points="2296.23,-191.2 2296.23,-213.2 2620.68,-213.2 2620.68,-191.2 2296.23,-191.2"/>
<text text-anchor="start" x="2437.34" y="-200.2" font-family="Arial" font-weight="bold" font-size="10.00">Ejemplo:</text>
<polygon fill="none" stroke="black" points="2296.23,-166.8 2296.23,-191.2 2620.68,-191.2 2620.68,-166.8 2296.23,-166.8"/>
<text text-anchor="start" x="2400.85" y="-175.4" font-family="Courier,monospace" font-size="12.00">RMUSR -user=juan</text>
</g>
<!-- chgrp&#45;&gt;rmusr -->
<g id="edge4" class="edge">
<title>chgrp-&gt;rmusr</title>
<path fill="none" stroke="#9e9e9e" stroke-dasharray="5,2" d="M2092.09,-260.8C2092.09,-260.8 2269.9,-260.8 2269.9,-260.8"/>
<polygon fill="#9e9e9e" stroke="#9e9e9e" points="2269.9,-264.3 2279.9,-260.8 2269.9,-257.3 2269.9,-264.3"/>
<text text-anchor="middle" x="2186.86" y="-263.8" font-family="Arial" font-size="10.00">4. Cambiar grupo (opcional)</text>
</g>
<!-- reference -->
<g id="node9" class="node">
<title>reference</title>
<polygon fill="white" stroke="black" points="629.92,-1259.2 28,-1259.2 28,-976.4 629.92,-976.4 629.92,-1259.2"/>
<polygon fill="#e0e0e0" stroke="none" points="35.2,-1227.6 35.2,-1252 622.72,-1252 622.72,-1227.6 35.2,-1227.6"/>
<polygon fill="none" stroke="black" points="35.2,-1227.6 35.2,-1252 622.72,-1252 622.72,-1227.6 35.2,-1227.6"/>
<text text-anchor="start" x="258.94" y="-1237.2" font-family="Arial" font-weight="bold" font-size="12.00">Información de Usuarios</text>
<polygon fill="none" stroke="black" points="35.2,-1203.2 35.2,-1227.6 231.06,-1227.6 231.06,-1203.2 35.2,-1203.2"/>
<text text-anchor="start" x="100.45" y="-1211.8" font-family="Arial" font-size="12.00">Usuario root</text>
<polygon fill="none" stroke="black" points="231.06,-1203.2 231.06,-1227.6 622.72,-1227.6 622.72,-1203.2 231.06,-1203.2"/>
<text text-anchor="start" x="284.65" y="-1211.8" font-family="Arial" font-size="12.00">Usuario administrador creado por defecto (pass=123)</text>
<polygon fill="none" stroke="black" points="35.2,-1178.8 35.2,-1203.2 231.06,-1203.2 231.06,-1178.8 35.2,-1178.8"/>
<text text-anchor="start" x="88.78" y="-1187.4" font-family="Arial" font-size="12.00">Archivo users.txt</text>
<polygon fill="none" stroke="black" points="231.06,-1178.8 231.06,-1203.2 622.72,-1203.2 622.72,-1178.8 231.06,-1178.8"/>
<text text-anchor="start" x="319.17" y="-1187.4" font-family="Arial" font-size="12.00">Almacena usuarios y grupos del sistema</text>
<polygon fill="none" stroke="black" points="35.2,-1154.4 35.2,-1178.8 231.06,-1178.8 231.06,-1154.4 35.2,-1154.4"/>
<text text-anchor="start" x="108.13" y="-1163" font-family="Arial" font-size="12.00">Permisos</text>
<polygon fill="none" stroke="black" points="231.06,-1154.4 231.06,-1178.8 622.72,-1178.8 622.72,-1154.4 231.06,-1154.4"/>
<text text-anchor="start" x="294.16" y="-1163" font-family="Arial" font-size="12.00">Solo root puede crear/modificar usuarios y grupos</text>
<polygon fill="#e0e0e0" stroke="none" points="35.2,-1130 35.2,-1154.4 622.72,-1154.4 622.72,-1130 35.2,-1130"/>
<polygon fill="none" stroke="black" points="35.2,-1130 35.2,-1154.4 622.72,-1154.4 622.72,-1130 35.2,-1130"/>
<text text-anchor="start" x="278.6" y="-1139.6" font-family="Arial" font-weight="bold" font-size="12.00">Secuencia Típica</text>
<polygon fill="none" stroke="black" points="35.2,-1105.6 35.2,-1130 622.72,-1130 622.72,-1105.6 35.2,-1105.6"/>
<text text-anchor="start" x="40.2" y="-1114.2" font-family="Arial" font-size="12.00">1. MKFS → 2. LOGIN como root → 3. MKGRP → 4. MKUSR → 5. LOGOUT → 6. LOGIN como nuevo usuario</text>
<polygon fill="#e0e0e0" stroke="none" points="35.2,-1081.2 35.2,-1105.6 622.72,-1105.6 622.72,-1081.2 35.2,-1081.2"/>
<polygon fill="none" stroke="black" points="35.2,-1081.2 35.2,-1105.6 622.72,-1105.6 622.72,-1081.2 35.2,-1081.2"/>
<text text-anchor="start" x="275.94" y="-1090.8" font-family="Arial" font-weight="bold" font-size="12.00">Recomendaciones</text>
<polygon fill="none" stroke="black" points="35.2,-1056.8 35.2,-1081.2 622.72,-1081.2 622.72,-1056.8 35.2,-1056.8"/>
<text text-anchor="start" x="182.88" y="-1065.4" font-family="Arial" font-size="12.00">• Los nombres de usuarios y grupos deben ser únicos</text>
<polygon fill="none" stroke="black" points="35.2,-1032.4 35.2,-1056.8 622.72,-1056.8 622.72,-1032.4 35.2,-1032.4"/>
<text text-anchor="start" x="177.55" y="-1041" font-family="Arial" font-size="12.00">• No se permite eliminar grupos con usuarios asignados</text>
<polygon fill="none" stroke="black" points="35.2,-1008 35.2,-1032.4 622.72,-1032.4 622.72,-1008 35.2,-1008"/>
<text text-anchor="start" x="179.2" y="-1016.6" font-family="Arial" font-size="12.00">• Un usuario solo puede pertenecer a un grupo a la vez</text>
<polygon fill="none" stroke="black" points="35.2,-983.6 35.2,-1008 622.72,-1008 622.72,-983.6 35.2,-983.6"/>
<text text-anchor="start" x="211.23" y="-992.2" font-family="Arial" font-size="12.00">• Se recomienda usar contraseñas seguras</text>
</g>
</g>
</svg>